<?xml version="1.0" encoding="utf-8"?>
<!-- Generator: Adobe Illustrator 18.1.0, SVG Export Plug-In . SVG Version: 6.00 Build 0)  -->
<svg version="1.1" id="Layer_1" xmlns="http://www.w3.org/2000/svg" xmlns:xlink="http://www.w3.org/1999/xlink" x="0px" y="0px"
	 viewBox="0 0 320 320" enable-background="new 0 0 320 320" xml:space="preserve">
<path fill="#9C4F4F" d="M240.7,316H79.3C35.7,316,0,280.3,0,236.7V83.3C0,39.7,35.7,4,79.3,4h161.4C284.3,4,320,39.7,320,83.3v153.4
	C320,280.3,284.3,316,240.7,316z"/>
<polygon fill="#F2F2F2" points="158.5,31.7 54.8,158.5 158.5,288.3 265.2,160 "/>
<g>
	<g enable-background="new    ">
		<path fill="#9C4F4F" d="M107.8,151.2l-8-8.1l20.2-24.1h14v88h-12.5V135L107.8,151.2z"/>
		<path fill="#9C4F4F" d="M184.2,117.4c23.8,0,35.3,20.6,35.3,45.7c0,25.2-11.5,45.7-35.3,45.7c-23.7,0-35.6-20-35.6-45.7
			C148.6,137.4,160.5,117.4,184.2,117.4z M184.2,129c-15.3,0-22.9,15-22.9,34.1c0,19,7.6,34.1,22.9,34.1c15.4,0,22.8-15,22.8-34.1
			C207,144.1,199.6,129,184.2,129z"/>
	</g>
</g>
</svg>
