<?xml version="1.0" encoding="utf-8"?>
<!-- Generator: Adobe Illustrator 18.1.0, SVG Export Plug-In . SVG Version: 6.00 Build 0)  -->
<svg version="1.1" id="Layer_1" xmlns="http://www.w3.org/2000/svg" xmlns:xlink="http://www.w3.org/1999/xlink" x="0px" y="0px"
	 viewBox="0 0 320 320" enable-background="new 0 0 320 320" xml:space="preserve">
<path fill="#9C4F4F" d="M240.7,316H79.3C35.7,316,0,280.3,0,236.7V83.3C0,39.7,35.7,4,79.3,4h161.4C284.3,4,320,39.7,320,83.3v153.4
	C320,280.3,284.3,316,240.7,316z"/>
<polygon fill="#F2F2F2" points="158.5,31.7 54.8,158.5 158.5,288.3 265.2,160 "/>
<g>
	<g enable-background="new    ">
		<path fill="#9C4F4F" d="M129.2,144.8c0-21.4,15.9-27.4,30.2-27.4c14.2,0,32,6.8,32,27.7c0,11.7-6.4,19.3-13.4,25.1l-16.3,13.8
			l-16.3,12l16.9-0.8h29.1V207h-58.8l-3.9-11.8l42.4-35.6c3.5-3.5,7.3-8.5,7.3-14.8c0-12.5-10.5-15.8-18.7-15.8
			c-8.3,0-17.5,2.8-18,15.8H129.2z"/>
	</g>
</g>
</svg>
