<?xml version="1.0" encoding="utf-8"?>
<!-- Generator: Adobe Illustrator 18.1.0, SVG Export Plug-In . SVG Version: 6.00 Build 0)  -->
<svg version="1.1" id="Layer_1" xmlns="http://www.w3.org/2000/svg" xmlns:xlink="http://www.w3.org/1999/xlink" x="0px" y="0px"
	 viewBox="0 0 320 320" enable-background="new 0 0 320 320" xml:space="preserve">
<path fill="#9C4F4F" d="M240.7,316H79.3C35.7,316,0,280.3,0,236.7V83.3C0,39.7,35.7,4,79.3,4h161.4C284.3,4,320,39.7,320,83.3v153.4
	C320,280.3,284.3,316,240.7,316z"/>
<polygon fill="#F2F2F2" points="158.5,31.7 54.8,158.5 158.5,288.3 265.2,160 "/>
<g>
	<g enable-background="new    ">
		<path fill="#9C4F4F" d="M137.5,179.4c0.5,11.9,11.3,17.4,22.3,17.3c10.3,0,20.4-5.1,20.4-15.8c0-11-12.9-14.7-19.5-14.7h-12.4V155
			h12.4c7.5,0,17.5-3.4,17.4-12.7c-0.1-9.1-8.8-13.4-19.4-13.5c-10.8-0.1-20.2,4.6-20,14.7h-12.2c0.6-19.8,15-26.1,32.2-26.1
			c16,0,32.3,6.5,32.2,24.8c0,8.6-4.1,15.5-12.4,18.4c8.8,2.9,14.4,10.4,14.4,19.9c0,21.6-19.5,27.9-33.2,27.9
			c-15.3,0-34.1-6.3-34.3-29.1H137.5z"/>
	</g>
</g>
</svg>
