<?xml version="1.0" encoding="utf-8"?>
<!-- Generator: Adobe Illustrator 18.1.0, SVG Export Plug-In . SVG Version: 6.00 Build 0)  -->
<svg version="1.1" id="Layer_1" xmlns="http://www.w3.org/2000/svg" xmlns:xlink="http://www.w3.org/1999/xlink" x="0px" y="0px"
	 viewBox="0 0 320 320" enable-background="new 0 0 320 320" xml:space="preserve">
<path fill="#9C4F4F" d="M240.7,316H79.3C35.7,316,0,280.3,0,236.7V83.3C0,39.7,35.7,4,79.3,4h161.4C284.3,4,320,39.7,320,83.3v153.4
	C320,280.3,284.3,316,240.7,316z"/>
<polygon fill="#F2F2F2" points="158.5,31.7 54.8,158.5 158.5,288.3 265.2,160 "/>
<g>
	<g enable-background="new    ">
		<path fill="#9C4F4F" d="M163.8,190.8h-41.1l-6.4-12.7l48.1-59h11.9v60.3h8.5v11.4h-8.5v16h-12.5V190.8z M165,135l-34.8,44.4H164
			v-28.6L165,135z"/>
	</g>
</g>
</svg>
