<?xml version="1.0" encoding="utf-8"?>
<!-- Generator: Adobe Illustrator 18.1.0, SVG Export Plug-In . SVG Version: 6.00 Build 0)  -->
<svg version="1.1" id="Layer_1" xmlns="http://www.w3.org/2000/svg" xmlns:xlink="http://www.w3.org/1999/xlink" x="0px" y="0px"
	 viewBox="0 0 320 320" enable-background="new 0 0 320 320" xml:space="preserve">
<path fill="#9C4F4F" d="M240.7,316H79.3C35.7,316,0,280.3,0,236.7V83.3C0,39.7,35.7,4,79.3,4h161.4C284.3,4,320,39.7,320,83.3v153.4
	C320,280.3,284.3,316,240.7,316z"/>
<polygon fill="#F2F2F2" points="158.5,31.7 54.8,158.5 158.5,288.3 265.2,160 "/>
<g>
	<g enable-background="new    ">
		<path fill="#9C4F4F" d="M138,181c0,12.8,12.4,15.7,21.1,15.7c14.4,0,21.4-8.9,21.4-19.2c0-10.2-7.1-17.9-21.1-17.9
			c-10,0-19.8,3.8-25.6,7.6l-5.8-5.9l3.5-42.4H187v11.5h-45.5l-1.6,23.1c5.4-3.9,12.9-5.4,19.7-5.4c22.3,0,33.2,13.4,33.2,29.3
			c0,16.7-11.5,31.5-34.3,31c-14.4-0.4-32.5-6.3-32.5-27.4H138z"/>
	</g>
</g>
</svg>
