<?xml version="1.0" encoding="utf-8"?>
<!-- Generator: Adobe Illustrator 18.1.0, SVG Export Plug-In . SVG Version: 6.00 Build 0)  -->
<svg version="1.1" id="Layer_1" xmlns="http://www.w3.org/2000/svg" xmlns:xlink="http://www.w3.org/1999/xlink" x="0px" y="0px"
	 viewBox="0 0 320 320" enable-background="new 0 0 320 320" xml:space="preserve">
<path fill="#9C4F4F" d="M240.7,316H79.3C35.7,316,0,280.3,0,236.7V83.3C0,39.7,35.7,4,79.3,4h161.4C284.3,4,320,39.7,320,83.3v153.4
	C320,280.3,284.3,316,240.7,316z"/>
<polygon fill="#F2F2F2" points="158.5,31.7 54.8,158.5 158.5,288.3 265.2,160 "/>
<g>
	<g enable-background="new    ">
		<path fill="#9C4F4F" d="M181.1,137.8c-4.1-6.1-12.3-8.9-19.8-8.9c-12.4,0-19.9,6.6-19.9,19.7v7.3c3.6-7.1,13.2-10.3,20.8-10.3
			c19.4,0,31.2,11.8,31.2,31.1c0,18.8-12.3,31.8-32.5,31.8c-14.8,0-31.6-10.3-31.7-30.3v-29.6c0-20.4,14.5-31.1,31.7-31.1
			c11.8,0,21.4,2.9,28.2,13.3L181.1,137.8z M180.7,176.6c-0.1-12.7-7-20-20-20c-8.5,0-19.3,5.1-19.3,19.4c0,11.7,9,20.8,19.4,20.8
			C172.8,196.8,180.7,189.5,180.7,176.6z"/>
	</g>
</g>
</svg>
