<?xml version="1.0" encoding="utf-8"?>
<!-- Generator: Adobe Illustrator 18.1.0, SVG Export Plug-In . SVG Version: 6.00 Build 0)  -->
<svg version="1.1" id="Layer_1" xmlns="http://www.w3.org/2000/svg" xmlns:xlink="http://www.w3.org/1999/xlink" x="0px" y="0px"
	 viewBox="0 0 320 320" enable-background="new 0 0 320 320" xml:space="preserve">
<path fill="#3D3535" d="M240.7,316H79.3C35.7,316,0,280.3,0,236.7V83.3C0,39.7,35.7,4,79.3,4h161.4C284.3,4,320,39.7,320,83.3v153.4
	C320,280.3,284.3,316,240.7,316z"/>
<path fill="#F2F2F2" d="M159.9,32.9c0.8,0.4,1.3,1,1.9,1.7c5.3,7.8,11.2,15,17.4,22.1c5.7,6.4,11.6,12.7,17.7,18.6
	c5.2,5,10.5,9.9,15.8,14.8c4.1,3.9,8.3,7.8,12.3,11.6c4.6,4.4,8.9,8.9,13.1,13.8c4.5,5.3,8.4,11,11.8,17c4.2,7.8,7.3,16.1,9.1,24.9
	c0.8,3.7,1.2,7.4,1.2,11.2c0,9.1-1.9,17.8-5.7,26c-2.5,5.5-5.9,10.3-10.1,14.6c-4,4-8.5,7.4-13.6,10c-3.5,1.9-7.3,3-11.1,3.8
	s-7.8,1.3-11.6,1.7c-1.3,0.1-2.8,0-4.1-0.2c-5.8-0.6-11.4-2-16.7-4.5c-3.7-1.7-7.2-3.9-10.4-6.5c-0.3-0.3-0.6-0.6-1.1-0.7
	c-0.1,0.3-0.2,0.7-0.2,0.9c-0.3,4.1-0.1,8.2,0.8,12.2c1.1,4.9,2.8,9.5,5,14.1c4,8.1,9,15.4,14.9,22.2c0.3,0.3,0.5,0.5,0.7,0.8
	c0.6,0.8,0.7,1.5,0.3,2.4c-0.3,0.8-1,1.2-1.9,1.3c-0.3,0-0.5,0-0.8,0c-7.2,0-14.3,0.1-21.4,0.1c-5.8,0-11.6,0-17.5,0.1
	c-5.6,0-11.1,0-16.7,0.1c-3.8,0-7.6,0.1-11.4,0.1c-0.4,0-0.8,0-1.2,0c-1.8-0.2-2.6-2.1-1.6-3.6c0.3-0.3,0.6-0.7,0.9-1.1
	c3.7-4.3,7.2-8.9,10.1-13.8c3.1-5.2,5.7-10.7,7.3-16.6c1.1-3.9,1.7-7.8,1.6-11.7c0-2.2-0.3-4.3-0.8-6.4c-0.1-0.3-0.2-0.5-0.3-0.8
	c-0.5,0.1-0.8,0.4-1,0.6c-3,2.4-6.3,4.4-9.9,5.9c-4.1,1.9-8.4,3.1-13,3.8c-3.5,0.5-7,0.7-10.5,0.6c-2.7-0.1-5.3-0.3-7.9-0.7
	c-1.4-0.3-2.8-0.6-4.1-1c-7.8-2.5-14.6-6.5-20.6-12.1c-4.3-4-7.8-8.5-10.6-13.6c-2.4-4.4-4-9-4.9-13.9c-0.7-3.9-1-7.8-1-11.8
	c0-2.8,0-5.6,0.3-8.4c0.5-4.6,1.4-9.3,2.9-13.8c2.3-7.3,5.6-14,9.6-20.4c3.6-5.7,7.8-11,12.2-16c3.8-4.3,7.7-8.5,11.7-12.7
	c4.8-4.9,9.8-9.5,14.8-14.3c3.9-3.6,7.9-7.3,11.7-11.1c4.6-4.6,9-9.4,13.4-14.3c5.1-5.7,10-11.4,14.5-17.4c2-2.7,4-5.5,5.9-8.2
	c0.5-0.7,1-1.3,1.9-1.7C159.2,32.9,159.5,32.9,159.9,32.9z"/>
<g>
	<g enable-background="new    ">
		<path fill="#3D3535" d="M180.4,124.6c-4.1-6.1-12.3-8.9-19.8-8.9c-12.4,0-19.9,6.6-19.9,19.7v7.3c3.6-7.1,13.2-10.3,20.8-10.3
			c19.4,0,31.2,11.8,31.2,31.1c0,18.8-12.3,31.8-32.5,31.8c-14.8,0-31.6-10.3-31.7-30.3v-29.6c0-20.4,14.5-31.1,31.7-31.1
			c11.8,0,21.4,2.9,28.2,13.3L180.4,124.6z M180,163.4c-0.1-12.7-7-20-20-20c-8.5,0-19.3,5.1-19.3,19.4c0,11.7,9,20.8,19.4,20.8
			C172.1,183.6,180,176.3,180,163.4z"/>
	</g>
</g>
</svg>
