<?xml version="1.0" encoding="utf-8"?>
<!-- Generator: Adobe Illustrator 18.1.0, SVG Export Plug-In . SVG Version: 6.00 Build 0)  -->
<svg version="1.1" id="Layer_1" xmlns="http://www.w3.org/2000/svg" xmlns:xlink="http://www.w3.org/1999/xlink" x="0px" y="0px"
	 viewBox="0 0 320 320" enable-background="new 0 0 320 320" xml:space="preserve">
<path fill="#9C4F4F" d="M240.7,316H79.3C35.7,316,0,280.3,0,236.7V83.3C0,39.7,35.7,4,79.3,4h161.4C284.3,4,320,39.7,320,83.3v153.4
	C320,280.3,284.3,316,240.7,316z"/>
<polygon fill="#F2F2F2" points="158.5,31.7 54.8,158.5 158.5,288.3 265.2,160 "/>
<g>
	<g enable-background="new    ">
		<path fill="#9C4F4F" d="M125.4,176.5c-0.5-9.5,4.4-19.5,13.9-22.7c-7.3-2.6-11.7-10.7-11.7-18c0-21.1,20.2-25.6,31.8-25.6
			c11.5,0,32.1,4,32.2,25.6c0,7.3-4.8,16.2-12.4,17.5c9.3,2.6,14.9,14,14.5,23.2c-1.4,22.6-21.7,25.8-34.5,25.8
			C145.7,202.3,126.8,198,125.4,176.5z M159.5,159.9c-12-0.1-21.6,4.6-21.4,15.4c0.1,12.5,11.3,15.3,21.3,15.3
			c10.1,0,21.7-2.4,21.8-15.3C181.3,163.9,170.5,159.7,159.5,159.9z M178.9,135.7c0-11.7-13.7-13.5-19.3-13.5
			c-5.6,0-19.2,1.9-19.3,13.5c0,9.9,9.6,13.3,19.3,13.3C169.2,149,178.9,145.6,178.9,135.7z"/>
	</g>
</g>
</svg>
