<?xml version="1.0" encoding="utf-8"?>
<!-- Generator: Adobe Illustrator 18.1.0, SVG Export Plug-In . SVG Version: 6.00 Build 0)  -->
<svg version="1.1" id="Layer_1" xmlns="http://www.w3.org/2000/svg" xmlns:xlink="http://www.w3.org/1999/xlink" x="0px" y="0px"
	 viewBox="0 0 320 320" enable-background="new 0 0 320 320" xml:space="preserve">
<path fill="#9C4F4F" d="M240.7,316H79.3C35.7,316,0,280.3,0,236.7V83.3C0,39.7,35.7,4,79.3,4h161.4C284.3,4,320,39.7,320,83.3v153.4
	C320,280.3,284.3,316,240.7,316z"/>
<polygon fill="#F2F2F2" points="158.5,31.7 54.8,158.5 158.5,288.3 265.2,160 "/>
<g>
	<g enable-background="new    ">
		<path fill="#9C4F4F" d="M140,187.8c5.3,7,13,9.3,21.4,9.3c12.7,0,20.3-6.9,20.3-19.5v-7.4c-3.6,7.1-13.7,10.3-21.3,10.3
			c-16.3,0-31.1-9.3-31.1-31.5c0-18.8,12.2-31.5,32.5-31.5c14.7,0,31.6,10.1,31.7,30.3v29.6c0,20.4-14.5,31.1-31.7,31.1
			c-11.9,0-23.2-3.1-29.9-13.5L140,187.8z M142,148.8c0.1,12.7,6.9,20.4,19.9,20.4c8.6,0,19.4-5,19.4-19.3
			c0-11.7-9.1-20.8-19.5-20.8C149.9,129.1,141.8,135.9,142,148.8z"/>
	</g>
</g>
</svg>
