<?xml version="1.0" encoding="utf-8"?>
<!-- Generator: Adobe Illustrator 18.1.0, SVG Export Plug-In . SVG Version: 6.00 Build 0)  -->
<svg version="1.1" id="Layer_1" xmlns="http://www.w3.org/2000/svg" xmlns:xlink="http://www.w3.org/1999/xlink" x="0px" y="0px"
	 viewBox="0 0 320 320" enable-background="new 0 0 320 320" xml:space="preserve">
<path fill="#9C4F4F" d="M240.7,316H79.3C35.7,316,0,280.3,0,236.7V83.3C0,39.7,35.7,4,79.3,4h161.4C284.3,4,320,39.7,320,83.3v153.4
	C320,280.3,284.3,316,240.7,316z"/>
<path fill="#F2F2F2" d="M265.5,127c-0.1,0.2-0.2,0.4-0.2,0.6c-0.1,5-1.2,9.8-2.5,14.6c-1.5,5.6-3.7,10.9-6.2,16
	c-4.5,9.2-10,17.7-16.5,25.6c-3.5,4.4-7.1,8.6-10.9,12.7c-2.5,2.7-5.1,5.4-7.7,8c-3.1,3.2-6.2,6.3-9.4,9.4
	c-3.8,3.8-7.6,7.5-11.5,11.3c-4.6,4.6-9.3,8.9-13.8,13.5c-6.2,6.2-12.1,12.6-17.8,19.1c-2.4,2.7-4.6,5.4-6.9,8
	c-0.2,0.3-0.3,0.4-0.6,0.7c-0.9,0.8-2.1,0.8-3-0.1c-0.3-0.2-0.4-0.4-0.6-0.7c-4.6-5.9-9.6-11.6-14.8-17c-3.3-3.5-6.7-7-10-10.5
	c-2.8-3-5.7-5.6-8.6-8.4c-0.8-0.8-1.6-1.6-2.4-2.4c-3.5-3.5-6.9-6.8-10.3-10.3c-0.7-0.7-1.3-1.3-1.9-1.9c-3-3.1-6.2-6.2-9.2-9.3
	c-3-3-6-6.2-9-9.2c-4.4-4.4-8.6-8.9-12.4-13.8c-7.6-9.6-13.8-20-18.4-31.4c-2.4-6.1-4.2-12.3-5.4-18.7c-0.5-3-1-6.2-0.9-9.3
	c0.1-1.9,0.2-3.9,0.4-5.8c0.4-3.6,1-7.2,1.9-10.7c1.8-6.9,4.6-13.4,8.7-19.3c6.3-9,14.8-15.3,25.1-19.1c3.8-1.3,7.7-2.3,11.7-2.6
	c3-0.3,5.9-0.5,8.9-0.4c7.5,0.2,14.8,1.5,21.7,4.8c4.6,2.2,8.6,5,12.2,8.5c5.8,5.7,9.9,12.4,12.8,19.8c0.8,1.9,1.3,4,2.1,6
	c0.1,0.3,0.1,0.8,0.6,1c0.2-0.5,0.3-0.9,0.4-1.3c1.6-5.8,3.9-11.3,7.2-16.4c5-7.8,11.6-13.8,19.9-17.9c5.3-2.7,11-4.5,16.9-5.5
	c1.4-0.3,3-0.4,4.4-0.5c1.9-0.2,3.6,0,5.4,0.3c3.8,0.5,7.5,1.2,11.1,2.2c7,2,13.4,5.1,19.1,9.6c6.7,5.3,11.6,11.9,14.9,19.7
	c2.5,5.7,4.1,11.6,4.9,17.7c0.2,1.1,0.2,2.3,0.3,3.4c0,0.4,0.2,0.8,0.2,1.3C265.5,121.3,265.5,124.1,265.5,127z"/>
<g>
	<g enable-background="new    ">
		<path fill="#9C4F4F" d="M140,187.8c5.3,7,13,9.3,21.4,9.3c12.7,0,20.3-6.9,20.3-19.5v-7.4c-3.6,7.1-13.7,10.3-21.3,10.3
			c-16.3,0-31.1-9.3-31.1-31.5c0-18.8,12.2-31.5,32.5-31.5c14.7,0,31.6,10.1,31.7,30.3v29.6c0,20.4-14.5,31.1-31.7,31.1
			c-11.9,0-23.2-3.1-29.9-13.5L140,187.8z M142,148.8c0.1,12.7,6.9,20.4,19.9,20.4c8.6,0,19.4-5,19.4-19.3
			c0-11.7-9.1-20.8-19.5-20.8C149.9,129.1,141.8,135.9,142,148.8z"/>
	</g>
</g>
</svg>
