<?xml version="1.0" encoding="utf-8"?>
<!-- Generator: Adobe Illustrator 18.1.0, SVG Export Plug-In . SVG Version: 6.00 Build 0)  -->
<svg version="1.1" id="Layer_1" xmlns="http://www.w3.org/2000/svg" xmlns:xlink="http://www.w3.org/1999/xlink" x="0px" y="0px"
	 viewBox="0 0 380.4 370.8" enable-background="new 0 0 380.4 370.8" xml:space="preserve">
<g>
	<path fill="#9C4F4F" d="M380.4,276.6V94.3c0-27.1-11.7-51.6-30.2-68.9l-160,160l160,160C368.7,328.2,380.4,303.7,380.4,276.6z"/>
	<path fill="#9C4F4F" d="M190.2,185.4l-160-160C11.7,42.7,0,67.1,0,94.3v182.3c0,27.1,11.7,51.6,30.2,68.9l0,0L190.2,185.4z"/>
	<path fill="#3D3535" d="M286.1,370.8c24.7,0,47.2-9.7,64.1-25.4l-160-160l-160,160l0,0c16.9,15.7,39.4,25.4,64.1,25.4H286.1z"/>
	<path fill="#3D3535" d="M190.2,185.4l160-160C333.3,9.7,310.8,0,286.1,0H94.3C69.6,0,47.1,9.7,30.2,25.4l0,0L190.2,185.4z"/>
</g>
</svg>
