<?xml version="1.0" encoding="utf-8"?>
<!-- Generator: Adobe Illustrator 18.1.0, SVG Export Plug-In . SVG Version: 6.00 Build 0)  -->
<svg version="1.1" id="Layer_1" xmlns="http://www.w3.org/2000/svg" xmlns:xlink="http://www.w3.org/1999/xlink" x="0px" y="0px"
	 viewBox="0 0 320 320" enable-background="new 0 0 320 320" xml:space="preserve">
<path fill="#3D3535" d="M240.7,316H79.3C35.7,316,0,280.3,0,236.7V83.3C0,39.7,35.7,4,79.3,4h161.4C284.3,4,320,39.7,320,83.3v153.4
	C320,280.3,284.3,316,240.7,316z"/>
<path fill="#F2F2F2" d="M274.8,183.3c-0.1,0.2-0.2,0.4-0.2,0.6c0,0.8,0,1.4-0.1,2.2c-0.4,10-3.2,19.3-8.6,27.8
	c-4.3,6.8-10,12.1-17.1,16.1c-5.5,3-11.3,5-17.5,6.1c-4.5,0.8-8.9,1.1-13.5,1c-5.1-0.1-10.2-0.5-15.2-1.7
	c-6.3-1.4-12.1-4.1-17.3-7.9c-2.4-1.8-4.8-3.7-7-5.8c-0.2-0.2-0.3-0.4-0.8-0.4c-0.2,0.8-0.3,1.7-0.3,2.5c-0.3,5.3,0.6,10.5,2.1,15.7
	c1.8,6,4.4,11.6,7.5,17c3.6,6.2,7.8,12.1,12.7,17.5c0.3,0.3,0.5,0.5,0.7,0.8c1,1.6,0,3.5-1.9,3.7c-0.3,0-0.5,0-0.8,0
	c-7.8,0-15.6,0-23.4,0.1c-6.4,0-12.8,0.1-19.3,0.1c-5.9,0-11.9,0.1-17.8,0.1c-3.5,0-7.1,0-10.6,0.1c-0.3,0-0.8,0-1.1,0
	c-1.8-0.2-2.7-2-1.9-3.5c0.3-0.4,0.5-0.8,0.8-1.1c4.1-4.8,7.9-9.9,11.2-15.4c3-5.1,5.6-10.5,7.3-16.3c1.3-4.4,2-8.9,1.9-13.5
	c0-2.1-0.3-4.2-0.8-6.3c-0.1-0.3-0.3-0.7-0.3-1.1c-0.4,0.3-0.8,0.7-1.1,0.9c-4.9,4.2-10.3,7.7-16.2,10.4c-0.9,0.4-1.9,0.8-3,1.1
	c-4,1.3-8.1,2.3-12.3,2.8c-2,0.3-4,0.4-6.1,0.5c-2.7,0.2-5.4,0-8.1-0.2c-5.5-0.5-10.9-1.7-16.1-3.6c-7.9-3-14.8-7.4-20.8-13.6
	c-5.3-5.6-9.2-12.1-11.7-19.3c-1.7-5-2.7-10-3-15.3c-0.3-4-0.2-7.9,0.1-11.9c0.3-4.4,0.7-8.7,1.6-12.9c1.9-8.5,5.8-15.9,12-21.9
	c5-5,10.6-9,17-12c4.9-2.2,10-3.6,15.4-4c5-0.4,10-0.2,14.8,1.3c0.2,0.1,0.4,0.1,0.8,0.2c-0.3-0.4-0.4-0.8-0.6-1
	c-2.4-3.7-4.5-7.6-6-11.7c-1.7-4.6-2.8-9.4-3.2-14.3C96.9,94,96.9,91,97,88c0.3-3.8,0.9-7.4,2.1-11.1c2-6.6,5.3-12.5,10-17.5
	c3.7-4,8-7.3,12.8-9.9c5.6-3,11.6-4.9,17.7-6.2c4.6-0.9,9.3-1.4,14-1.8c4.4-0.3,8.7,0.1,13,0.6c5,0.7,9.8,1.8,14.5,3.3
	c5.6,1.9,10.9,4.2,15.7,7.6c10.5,7.2,17,17,19.6,29.5c0.5,2.7,0.8,5.5,1,8.2c0.1,1,0.2,2.1,0.3,3.1c0.3,4.3-0.3,8.6-1.4,12.7
	c-1.4,5.6-3.8,10.6-6.9,15.4c-0.4,0.7-0.9,1.3-1.4,2.1c0.3,0,0.6,0.1,0.8,0c2.7-0.8,5.5-1.3,8.3-1.4c2.8-0.3,5.7-0.3,8.4,0
	c2.9,0.3,5.7,0.6,8.6,1.3c10.1,2.3,18.8,7,26.2,14.3c3.4,3.3,6.2,7,8.4,11.1c2.1,3.9,3.5,7.9,4.4,12.2c1.1,5,1.5,10,1.4,15.1
	c0,0.5-0.2,1.1,0.2,1.6C274.8,179.9,274.8,181.6,274.8,183.3z"/>
<g>
	<g enable-background="new    ">
		<path fill="#3D3535" d="M144.6,206.9h-12.7v-87.7h12.7v44.6l12.2-14.3l26.7-30.3h15.3v0.9l-34.5,38.7l36.8,47.4v0.8h-14.7
			l-30.3-39.3l-11.5,12.9V206.9z"/>
	</g>
</g>
</svg>
