<?xml version="1.0" encoding="utf-8"?>
<!-- Generator: Adobe Illustrator 18.1.0, SVG Export Plug-In . SVG Version: 6.00 Build 0)  -->
<svg version="1.1" id="Layer_1" xmlns="http://www.w3.org/2000/svg" xmlns:xlink="http://www.w3.org/1999/xlink" x="0px" y="0px"
	 viewBox="0 0 320 320" enable-background="new 0 0 320 320" xml:space="preserve">
<path fill="#9C4F4F" d="M240.7,316H79.3C35.7,316,0,280.3,0,236.7V83.3C0,39.7,35.7,4,79.3,4h161.4C284.3,4,320,39.7,320,83.3v153.4
	C320,280.3,284.3,316,240.7,316z"/>
<polygon fill="#F2F2F2" points="158.5,31.7 54.8,158.5 158.5,288.3 265.2,160 "/>
<g>
	<g enable-background="new    ">
		<path fill="#9C4F4F" d="M158.9,208.5c-25.7,0-37-21.8-37-45.5c0-23.6,11.3-45.4,37-45.4c25.7,0,37,21.8,37,45.4
			c0,11.8-2.8,23.1-8.8,31.5l8.9,11.2v1.6h-12.3l-4.1-5.1C174.2,206.1,167.3,208.5,158.9,208.5z M157.3,173.4h13l9.1,11.4
			c2.9-6,3.8-13.8,3.8-21.8c0-15-6-33.6-24.3-33.6s-24.3,18.5-24.3,33.6c0,15.2,6,33.7,24.3,33.7c5.6,0,10-1.3,13.4-3.5l-15-18.3
			V173.4z"/>
	</g>
</g>
</svg>
