<?xml version="1.0" encoding="utf-8"?>
<!-- Generator: Adobe Illustrator 18.0.0, SVG Export Plug-In . SVG Version: 6.00 Build 0)  -->
<!DOCTYPE svg PUBLIC "-//W3C//DTD SVG 1.1//EN" "http://www.w3.org/Graphics/SVG/1.1/DTD/svg11.dtd">
<svg version="1.1" id="Layer_1" xmlns="http://www.w3.org/2000/svg" xmlns:xlink="http://www.w3.org/1999/xlink" x="0px" y="0px"
	 viewBox="0 0 70 46.5" enable-background="new 0 0 70 46.5" xml:space="preserve">
<g id="Picture_Icon_With_Flash_3_">
	<g display="none">
		<path display="inline" fill="#D77676" d="M65.5,71.6c0,0.3-0.2,0.5-0.5,0.5h-85.4c-0.3,0-0.5-0.2-0.5-0.5v-85.4
			c0-0.3,0.2-0.5,0.5-0.5H65c0.3,0,0.5,0.2,0.5,0.5V71.6z"/>
	</g>
	<rect x="35.2" y="10.4" display="none" fill="#872626" width="5" height="2"/>
	<g id="Flash_4_" display="none">
		<path display="inline" fill="#C01719" d="M44.4,10.5c0,0.3-0.2,0.5-0.5,0.5H31.5c-0.3,0-0.5-0.2-0.5-0.5V1.3
			c0-0.3,0.2-0.5,0.5-0.5h12.4c0.3,0,0.5,0.2,0.5,0.5V10.5z"/>
	</g>
	<g id="Camera_3_">
		<g id="CameBody_17_">
			<path fill="#C01719" d="M44.8,46c0,0.3-0.2,0.5-0.5,0.5H0.5C0.2,46.5,0,46.3,0,46V13c0-0.3,0.2-0.5,0.5-0.5h43.7
				c0.3,0,0.5,0.2,0.5,0.5V46z"/>
		</g>
		<path id="CamCenterLens_3_" fill="#872626" d="M35.2,30c0,6.7-5.4,12.1-12.1,12.1l0,0C16.4,42.1,11,36.7,11,30l0,0
			c0-6.7,5.4-12.1,12.1-12.1l0,0C29.7,17.9,35.2,23.4,35.2,30L35.2,30z"/>
		<path id="Dot_3_" fill="#872626" d="M10.9,18.7c0,1.6-1.3,3-3,3l0,0c-1.6,0-3-1.3-3-3l0,0c0-1.6,1.3-3,3-3l0,0
			C9.6,15.7,10.9,17.1,10.9,18.7L10.9,18.7z"/>
		<path id="Lens_3_" fill="#E5A4A4" d="M33.5,30c0,5.8-4.7,10.5-10.5,10.5l0,0c-5.8,0-10.5-4.7-10.5-10.5l0,0
			c0-5.8,4.7-10.5,10.5-10.5l0,0C28.8,19.6,33.5,24.2,33.5,30L33.5,30z"/>
		<rect id="Button_6_" x="2.9" y="9.6" fill="#872626" width="8.1" height="2.9"/>
		<path fill="#872626" d="M21.6,23.2c0,0,7-0.6,7.1,6.9C28.7,30,25.6,25.2,21.6,23.2z"/>
	</g>
	<g id="Add_2_">
		<path fill="#D77676" d="M62.9,17.7c0,0.8-0.6,1.4-1.4,1.4h-2.1c-0.8,0-1.4-0.6-1.4-1.4V1.4c0-0.8,0.6-1.4,1.4-1.4h2.1
			c0.8,0,1.4,0.6,1.4,1.4V17.7z"/>
		<path fill="#D77676" d="M68.6,7.1c0.8,0,1.4,0.6,1.4,1.4v2.1c0,0.8-0.6,1.4-1.4,1.4H52.3c-0.8,0-1.4-0.6-1.4-1.4V8.5
			c0-0.8,0.6-1.4,1.4-1.4H68.6z"/>
	</g>
</g>
</svg>
