<?xml version="1.0" encoding="utf-8"?>
<!-- Generator: Adobe Illustrator 18.0.0, SVG Export Plug-In . SVG Version: 6.00 Build 0)  -->
<!DOCTYPE svg PUBLIC "-//W3C//DTD SVG 1.1//EN" "http://www.w3.org/Graphics/SVG/1.1/DTD/svg11.dtd">
<svg version="1.1" id="Layer_1" xmlns="http://www.w3.org/2000/svg" xmlns:xlink="http://www.w3.org/1999/xlink" x="0px" y="0px"
	 viewBox="0 0 65.6 45.6" enable-background="new 0 0 65.6 45.6" xml:space="preserve">
<g id="PhotoPop_2_">
	<g id="Add_5_">
		<path fill="#6BB9C6" d="M58.5,17.7c0,0.8-0.6,1.4-1.4,1.4h-2.1c-0.8,0-1.4-0.6-1.4-1.4V1.4c0-0.8,0.6-1.4,1.4-1.4H57
			c0.8,0,1.4,0.6,1.4,1.4V17.7z"/>
		<path fill="#6BB9C6" d="M64.1,7.1c0.8,0,1.4,0.6,1.4,1.4v2.1c0,0.8-0.6,1.4-1.4,1.4H47.8c-0.8,0-1.4-0.6-1.4-1.4V8.5
			c0-0.8,0.6-1.4,1.4-1.4H64.1z"/>
	</g>
	<g id="Video_6_">
		<g id="CameBody_7_">
			<path fill="#1B7FBC" d="M34,43.1c0,1.1-0.9,2-2,2H2c-1.1,0-2-0.9-2-2V21.8c0-1.1,0.9-2,2-2h30c1.1,0,2,0.9,2,2V43.1z"/>
		</g>
		<g id="CamLens_4_">
			<path fill="#1B7FBC" d="M42.8,20.3c0-1.1-0.7-1.4-1.5-0.6l-6.7,6.5c-0.8,0.8-1.5,2.4-1.5,3.5l0,5.5c0,1.1,0.7,2.7,1.5,3.5
				l6.7,6.5c0.8,0.8,1.5,0.5,1.5-0.6L42.8,20.3z"/>
		</g>
		<g id="Film_5_">
			<path id="Left_5_" fill="#1B7FBC" d="M16.3,11c0,4.1-3.4,7.4-7.6,7.4l0,0c-4.2,0-7.6-3.3-7.6-7.4l0,0c0-4.1,3.4-7.4,7.6-7.4l0,0
				C12.9,3.6,16.3,6.9,16.3,11L16.3,11z"/>
			<path id="Right_5_" fill="#1B7FBC" d="M31.4,11c0,4.1-3.4,7.4-7.6,7.4l0,0c-4.2,0-7.6-3.3-7.6-7.4l0,0c0-4.1,3.4-7.4,7.6-7.4l0,0
				C28,3.6,31.4,6.9,31.4,11L31.4,11z"/>
			<path id="Bottom_5_" fill="#1B7FBC" d="M1.2,10.7c0,0-0.5,7.2,7.6,7.6H25c0,0,6.4-0.9,6.4-7.6H1.2z"/>
		</g>
		<path fill="#6BB9C6" d="M8.8,15.2L8.8,15.2c-2.3,0-4.2-1.9-4.2-4.2v0c0-2.3,1.9-4.2,4.2-4.2l0,0c2.3,0,4.2,1.9,4.2,4.2v0
			C13,13.3,11.1,15.2,8.8,15.2z"/>
		<path fill="#6BB9C6" d="M23.9,15.2L23.9,15.2c-2.3,0-4.2-1.9-4.2-4.2v0c0-2.3,1.9-4.2,4.2-4.2l0,0c2.3,0,4.2,1.9,4.2,4.2v0
			C28.1,13.3,26.2,15.2,23.9,15.2z"/>
	</g>
</g>
</svg>
