<?xml version="1.0" encoding="utf-8"?>
<!-- Generator: Adobe Illustrator 18.1.0, SVG Export Plug-In . SVG Version: 6.00 Build 0)  -->
<svg version="1.1" id="Layer_1" xmlns="http://www.w3.org/2000/svg" xmlns:xlink="http://www.w3.org/1999/xlink" x="0px" y="0px"
	 viewBox="0 0 42.18 35.69" enable-background="new 0 0 42.18 35.69" xml:space="preserve">
<g>
	<path id="Heart_13_" fill="#ACAFAF" d="M39.156,3.025c-4.03-4.033-10.568-4.033-14.6,0L21.09,6.489l-3.466-3.464
		c-4.033-4.033-10.569-4.033-14.602,0c-4.029,4.029-4.029,10.567,0,14.599l3.468,3.466L21.09,35.69l14.599-14.601l3.467-3.466
		C43.188,13.592,43.188,7.054,39.156,3.025z M15.664,22.102c-1.901,0-3.442-2.586-3.442-5.776c0-3.192,1.541-5.779,3.442-5.779
		c1.9,0,3.441,2.587,3.441,5.779C19.106,19.516,17.565,22.102,15.664,22.102z M26.543,22.102c-1.9,0-3.443-2.586-3.443-5.776
		c0-3.192,1.543-5.779,3.443-5.779c1.901,0,3.44,2.587,3.44,5.779C29.984,19.516,28.445,22.102,26.543,22.102z"/>
</g>
</svg>
