<?xml version="1.0" encoding="utf-8"?>
<!-- Generator: Adobe Illustrator 18.0.0, SVG Export Plug-In . SVG Version: 6.00 Build 0)  -->
<!DOCTYPE svg PUBLIC "-//W3C//DTD SVG 1.1//EN" "http://www.w3.org/Graphics/SVG/1.1/DTD/svg11.dtd">
<svg version="1.1" id="Layer_1" xmlns="http://www.w3.org/2000/svg" xmlns:xlink="http://www.w3.org/1999/xlink" x="0px" y="0px"
	 viewBox="0 0 26 22" enable-background="new 0 0 26 22" xml:space="preserve">
<g>
	<path id="Heart_10_" fill="#ADB0B0" d="M24.1,1.9c-2.5-2.5-6.5-2.5-9,0L13,4l-2.1-2.1c-2.5-2.5-6.5-2.5-9,0c-2.5,2.5-2.5,6.5,0,9
		L4,13l9,9l9-9l2.1-2.1C26.6,8.4,26.6,4.3,24.1,1.9z M9.7,13.6c-1.2,0-2.1-1.6-2.1-3.6c0-2,1-3.6,2.1-3.6c1.2,0,2.1,1.6,2.1,3.6
		C11.8,12,10.8,13.6,9.7,13.6z M16.4,13.6c-1.2,0-2.1-1.6-2.1-3.6c0-2,1-3.6,2.1-3.6c1.2,0,2.1,1.6,2.1,3.6
		C18.5,12,17.5,13.6,16.4,13.6z"/>
</g>
</svg>
