<?xml version="1.0" encoding="utf-8"?>
<!-- Generator: Adobe Illustrator 16.0.4, SVG Export Plug-In . SVG Version: 6.00 Build 0)  -->
<!DOCTYPE svg PUBLIC "-//W3C//DTD SVG 1.1//EN" "http://www.w3.org/Graphics/SVG/1.1/DTD/svg11.dtd">
<svg version="1.1" xmlns="http://www.w3.org/2000/svg" xmlns:xlink="http://www.w3.org/1999/xlink" x="0px" y="0px" width="24px"
	 height="24px" viewBox="0 0 24 24" enable-background="new 0 0 24 24" xml:space="preserve">
<g id="Layer_1" display="none">
	<rect display="inline" width="24" height="24"/>
	<rect x="2.917" y="3" transform="matrix(1 0.0054 -0.0054 1 0.0653 -0.0645)" fill="#770C0C" width="18" height="18"/>
</g>
<g id="Starburst" display="none">
	
		<rect x="15.198" y="16.664" transform="matrix(-0.7032 -0.711 0.711 -0.7032 17.0882 41.4616)" display="inline" fill="#FFFFFF" width="4" height="1"/>
	<circle fill="#FFFFFF" cx="12.012" cy="11.893" r="4.303"/>
	<polygon display="inline" fill="#FFFFFF" points="12.018,8.932 12.969,10.887 15.118,11.211 13.554,12.719 13.909,14.863 
		11.991,13.842 10.062,14.843 10.441,12.703 8.893,11.177 11.045,10.876 	"/>
	
		<rect x="10.05" y="4.478" transform="matrix(-0.0054 1 -1 -0.0054 17.0922 -7.0451)" display="inline" fill="#FFFFFF" width="4" height="1"/>
	
		<rect x="9.963" y="18.487" transform="matrix(-0.0054 1 -1 -0.0054 31.0147 7.1261)" display="inline" fill="#FFFFFF" width="4" height="1"/>
	
		<rect x="3.002" y="11.355" transform="matrix(-1 -0.0054 0.0054 -1 9.9397 23.7367)" display="inline" fill="#FFFFFF" width="4" height="1"/>
	
		<rect x="17.033" y="11.431" transform="matrix(-1 -0.0054 0.0054 -1 38.0011 23.9634)" display="inline" fill="#FFFFFF" width="4" height="1"/>
	
		<rect x="15.141" y="6.358" transform="matrix(-0.7109 0.7033 -0.7033 -0.7109 34.1505 -0.3228)" display="inline" fill="#FFFFFF" width="4" height="1"/>
	
		<rect x="4.939" y="6.315" transform="matrix(-0.7033 -0.7109 0.7109 -0.7033 6.9742 16.5406)" display="inline" fill="#FFFFFF" width="4" height="1"/>
	
		<rect x="4.691" y="16.823" transform="matrix(-0.711 0.7032 -0.7032 -0.711 23.6289 24.9355)" display="inline" fill="#FFFFFF" width="4" height="1"/>
</g>
<g id="Starburst_copy" display="none">
	<circle fill="#FFFFFF" cx="12.012" cy="11.893" r="4.303"/>
	
		<rect x="10.503" y="4.26" transform="matrix(-0.0055 1 -1 -0.0055 17.332 -7.7176)" display="inline" fill="#FFFFFF" width="4.002" height="1"/>
	
		<rect x="15.596" y="6.14" transform="matrix(-0.7109 0.7033 -0.7033 -0.7109 34.7776 -1.014)" display="inline" fill="#FFFFFF" width="4.001" height="1"/>
	
		<rect x="5.391" y="6.097" transform="matrix(-0.7033 -0.7109 0.7109 -0.7033 7.9 16.4914)" display="inline" fill="#FFFFFF" width="4.001" height="1"/>
	<polygon display="inline" fill="#FFFFFF" points="12.504,9.49 15.943,16.459 9.064,16.459 	"/>
</g>
<g id="Lightbulb" display="none">
	
		<circle display="inline" fill="none" stroke="#FFFFFF" stroke-width="0.5" stroke-miterlimit="10" cx="12.229" cy="8.65" r="4.965"/>
	<path display="inline" fill="#FFFFFF" d="M13.447,15.708H11.01c-0.069,0.076-0.107,0.16-0.107,0.248
		c0,0.347,0.594,0.627,1.327,0.627c0.732,0,1.327-0.28,1.327-0.627C13.556,15.868,13.517,15.784,13.447,15.708z"/>
	<g display="inline">
		<path fill="none" stroke="#FFFFFF" stroke-width="0.5" stroke-miterlimit="10" d="M10.1,13.016v1.692c0,0.55,0.45,1,1,1h2.263
			c0.55,0,0.999-0.45,0.998-1l-0.002-1.692"/>
	</g>
	<rect x="11.597" y="5.924" display="inline" fill="#FFFFFF" width="1.264" height="3.792"/>
	<rect x="11.597" y="10.112" display="inline" fill="#FFFFFF" width="1.264" height="1.264"/>
	
		<line display="inline" fill="none" stroke="#FFFFFF" stroke-width="0.5" stroke-miterlimit="10" x1="10.333" y1="14.521" x2="14.229" y2="14.521"/>
</g>
<g id="World" display="none">
</g>
<g id="award" display="none">
	<circle display="inline" fill="#FFFFFF" cx="11.55" cy="8.701" r="2.233"/>
	<polygon display="inline" fill="#770C0C" points="11.552,7.166 12.046,8.179 13.16,8.347 12.349,9.13 12.534,10.242 11.539,9.712 
		10.538,10.231 10.734,9.121 9.931,8.33 11.048,8.174 	"/>
	<g>
		
			<rect x="13.203" y="11.176" transform="matrix(-0.7033 -0.7109 0.7109 -0.7033 16.1261 29.6006)" display="inline" fill="#FFFFFF" width="2.074" height="0.518"/>
		
			<rect x="10.531" y="4.854" transform="matrix(-0.0054 1 -1 -0.0054 16.7454 -6.427)" display="inline" fill="#FFFFFF" width="2.075" height="0.519"/>
		
			<rect x="10.487" y="12.122" transform="matrix(-0.0054 1 -1 -0.0054 23.9675 0.9241)" display="inline" fill="#FFFFFF" width="2.075" height="0.519"/>
		
			<rect x="6.875" y="8.422" transform="matrix(-1 -0.0054 0.0054 -1 15.7786 17.4055)" display="inline" fill="#FFFFFF" width="2.075" height="0.519"/>
		
			<rect x="14.154" y="8.461" transform="matrix(-1 -0.0054 0.0054 -1 30.3354 17.5235)" display="inline" fill="#FFFFFF" width="2.074" height="0.519"/>
		
			<rect x="13.173" y="5.83" transform="matrix(-0.7107 0.7034 -0.7034 -0.7107 28.5932 0.4213)" display="inline" fill="#FFFFFF" width="2.075" height="0.519"/>
		
			<rect x="7.88" y="5.808" transform="matrix(-0.7032 -0.711 0.711 -0.7032 10.8753 16.6735)" display="inline" fill="#FFFFFF" width="2.075" height="0.519"/>
		
			<rect x="7.752" y="11.259" transform="matrix(-0.711 0.7032 -0.7032 -0.711 23.1374 13.5262)" display="inline" fill="#FFFFFF" width="2.075" height="0.519"/>
	</g>
	<g display="inline">
		<g>
			<path fill="#FFFFFF" d="M11.449,13.773c-0.496-0.067-0.992-0.133-1.488-0.197c0.132-1.029,0.232-2.066,0.3-3.11
				c0.499,0.034,0.998,0.069,1.497,0.106C11.688,11.646,11.584,12.713,11.449,13.773z"/>
			<path fill="#FFFFFF" d="M10.063,12.722c-0.087,0.785-0.192,1.566-0.315,2.342c0.305-0.328,0.607-0.663,0.906-1.003
				c0.193,0.409,0.381,0.822,0.565,1.241c0.126-0.799,0.235-1.603,0.324-2.41C11.05,12.834,10.557,12.777,10.063,12.722z"/>
		</g>
	</g>
	<g display="inline">
		
			<rect x="11.292" y="10.505" transform="matrix(0.9901 -0.1406 0.1406 0.9901 -1.5503 1.8112)" fill="#FFFFFF" width="1.5" height="2.744"/>
		<polygon fill="#FFFFFF" points="11.386,12.591 11.68,14.654 12.283,13.572 13.154,14.445 12.861,12.382 		"/>
	</g>
</g>
<g id="award_copy" display="none">
	<circle fill="#FFFFFF" cx="11.55" cy="8.701" r="2.233"/>
	<g>
		
			<rect x="13.203" y="11.176" transform="matrix(-0.7033 -0.7109 0.7109 -0.7033 16.1261 29.6006)" display="inline" fill="#FFFFFF" width="2.074" height="0.518"/>
		
			<rect x="10.531" y="4.854" transform="matrix(-0.0054 1 -1 -0.0054 16.7454 -6.427)" display="inline" fill="#FFFFFF" width="2.075" height="0.519"/>
		
			<rect x="10.487" y="12.122" transform="matrix(-0.0054 1 -1 -0.0054 23.9675 0.9241)" display="inline" fill="#FFFFFF" width="2.075" height="0.519"/>
		
			<rect x="6.875" y="8.422" transform="matrix(-1 -0.0054 0.0054 -1 15.7786 17.4055)" display="inline" fill="#FFFFFF" width="2.075" height="0.519"/>
		
			<rect x="14.154" y="8.461" transform="matrix(-1 -0.0054 0.0054 -1 30.3354 17.5235)" display="inline" fill="#FFFFFF" width="2.074" height="0.519"/>
		
			<rect x="13.173" y="5.83" transform="matrix(-0.7107 0.7034 -0.7034 -0.7107 28.5932 0.4213)" display="inline" fill="#FFFFFF" width="2.075" height="0.519"/>
		
			<rect x="7.88" y="5.808" transform="matrix(-0.7032 -0.711 0.711 -0.7032 10.8753 16.6735)" display="inline" fill="#FFFFFF" width="2.075" height="0.519"/>
		
			<rect x="7.752" y="11.259" transform="matrix(-0.711 0.7032 -0.7032 -0.711 23.1374 13.5262)" display="inline" fill="#FFFFFF" width="2.075" height="0.519"/>
	</g>
	<g>
		<g display="inline">
			<path fill="#FFFFFF" d="M11.449,13.773c-0.496-0.067-0.992-0.133-1.488-0.197c0.132-1.029,0.232-2.066,0.3-3.11
				c0.499,0.034,0.998,0.069,1.497,0.106C11.688,11.646,11.584,12.713,11.449,13.773z"/>
			<path fill="#FFFFFF" d="M10.063,12.722c-0.087,0.785-0.192,1.566-0.315,2.342c0.305-0.328,0.607-0.663,0.906-1.003
				c0.193,0.409,0.381,0.822,0.565,1.241c0.126-0.799,0.235-1.603,0.324-2.41C11.05,12.834,10.557,12.777,10.063,12.722z"/>
		</g>
	</g>
	<g>
		
			<rect x="11.292" y="10.505" transform="matrix(0.9901 -0.1406 0.1406 0.9901 -1.5503 1.8112)" display="inline" fill="#FFFFFF" width="1.5" height="2.744"/>
		<polygon display="inline" fill="#FFFFFF" points="11.386,12.591 11.68,14.654 12.283,13.572 13.154,14.445 12.861,12.382 		"/>
	</g>
	<circle display="inline" fill="#FFFFFF" cx="11.752" cy="14.878" r="5.935"/>
	<circle display="inline" cx="11.752" cy="14.858" r="4.55"/>
	<polygon display="inline" fill="#FFFFFF" points="11.749,12.406 12.535,14.022 14.312,14.29 13.019,15.538 13.312,17.311 
		11.727,16.466 10.131,17.293 10.445,15.523 9.165,14.263 10.944,14.014 	"/>
	<polygon display="inline" fill="#FFFFFF" points="4.702,2.939 9.562,2.939 11.292,5.938 9.911,8.542 8.417,9.188 	"/>
	<path display="inline" fill="#FFFFFF" d="M13.875,2.979h4.812l-3.625,6.208c0,0-1.456-0.937-4.231-0.771L13.875,2.979z"/>
</g>
<g id="Heart" display="none">
	<g id="Heart_2_">
		<path display="inline" fill="#FFFFFF" d="M20.568,6.527c-0.488-0.637-1.4-0.757-2.038-0.269l-0.547,0.42l-0.42-0.547
			c-0.488-0.637-1.4-0.757-2.037-0.269s-0.758,1.4-0.27,2.038l0.421,0.547l1.769,2.306l2.306-1.769l0.548-0.42
			C20.937,8.076,21.057,7.164,20.568,6.527z"/>
		<g id="Heart_1_" display="inline">
			<path fill="#FFFFFF" d="M14.993,8.542c-1.221-1.221-3.201-1.221-4.422,0l-1.05,1.05l-1.05-1.05c-1.222-1.221-3.202-1.221-4.423,0
				c-1.222,1.221-1.222,3.202,0,4.423l1.05,1.05l4.423,4.423l4.423-4.423l1.05-1.05C16.215,11.744,16.215,9.763,14.993,8.542z"/>
			<ellipse cx="8.233" cy="12.571" rx="1.043" ry="1.751"/>
			<ellipse cx="11.173" cy="12.571" rx="1.043" ry="1.751"/>
		</g>
	</g>
</g>
<g id="Star_1_" display="none">
	<g id="Star" display="inline">
		<g>
			<g>
				<path fill="#FFFFFF" d="M17.005,19.403c0.045,0.271-0.116,0.388-0.359,0.259l-4.231-2.245c-0.243-0.129-0.641-0.131-0.885-0.004
					L7.28,19.626c-0.244,0.127-0.404,0.009-0.357-0.262l0.828-4.718c0.047-0.271-0.074-0.65-0.27-0.843l-3.417-3.357
					c-0.196-0.193-0.134-0.382,0.139-0.42l4.743-0.67c0.272-0.039,0.595-0.271,0.718-0.518L11.8,4.551
					c0.123-0.246,0.322-0.245,0.443,0.002l2.104,4.304c0.12,0.247,0.441,0.482,0.714,0.523l4.737,0.708
					c0.272,0.041,0.333,0.23,0.136,0.421l-3.443,3.331c-0.198,0.19-0.322,0.569-0.277,0.84L17.005,19.403z"/>
			</g>
			<g>
				<ellipse cx="10.688" cy="11.833" rx="0.604" ry="1.75"/>
			</g>
			<g>
				<ellipse cx="13.313" cy="11.833" rx="0.604" ry="1.75"/>
			</g>
		</g>
	</g>
</g>
<g id="Email_1_">
	<g id="Email" display="none">
		<g display="inline">
			<g>
				<path fill="#E4E4E4" d="M21,20c0,0.55-0.45,1-1,1H4c-0.55,0-1-0.45-1-1V4c0-0.55,0.45-1,1-1h16c0.55,0,1,0.45,1,1V20z"/>
			</g>
			<g>
				<path fill="#E4E4E4" d="M3,3.436l8.296,8.373c0.387,0.391,1.022,0.392,1.411,0.003L21,3.52"/>
				<path fill="none" stroke="#FFFFFF" stroke-miterlimit="10" d="M3,3.436l8.296,8.373c0.387,0.391,1.022,0.392,1.411,0.003
					L21,3.52"/>
			</g>
		</g>
	</g>
	<rect x="2.651" fill="none" width="24.083" height="20.311"/>
	<text transform="matrix(1 0 0 1 2.6514 17.75)" fill="#ADB0B0" font-family="'MyriadPro-Regular'" font-size="25">@</text>
</g>
<g id="Lock_2_" display="none">
	<g id="Lock_1_">
		<g id="Lock" display="inline">
			<circle fill="#E4E4E4" cx="12.509" cy="8.364" r="5.373"/>
			<path fill="#FFFFFF" d="M16.881,8c0-2.414-1.958-4.372-4.372-4.372l0,0c-2.414,0-4.371,1.958-4.371,4.372l0,0
				c0,2.414,1.957,4.372,4.371,4.372l0,0C14.923,12.372,16.881,10.414,16.881,8L16.881,8z"/>
			<rect x="3" y="8" fill="#E4E4E4" width="18" height="13"/>
		</g>
		<polygon display="inline" fill="#FFFFFF" points="12.272,11.818 10.656,14.774 12.272,17.731 13.895,14.774 		"/>
	</g>
</g>
<g id="X_1_" display="none">
	<g id="X">
		
			<rect x="1.762" y="10.005" transform="matrix(-0.7164 -0.6977 0.6977 -0.7164 12.1468 27.5252)" display="inline" fill="#E4E4E4" width="19.813" height="2.578"/>
		
			<rect x="1.762" y="10.004" transform="matrix(0.6758 -0.7371 0.7371 0.6758 -4.5413 12.2614)" display="inline" fill="#E4E4E4" width="19.812" height="2.578"/>
	</g>
</g>
<g id="Question" display="none">
	<g id="QuestionMark_2_">
		<path display="inline" fill="#E4E4E4" d="M13.28,7.039"/>
		<path display="inline" fill="#E4E4E4" d="M13.631,15.751v-1.007c0,0,0.378-1.144,0.729-1.498l1.729-1.334
			c0,0,1.513-1.034,1.783-2.45c0,0,0.459-1.524,0.135-2.641c0,0-0.513-1.906-1.729-2.641c0,0-1.297-0.925-2.647-1.089
			c0,0-2.296-0.218-3.133,0c0,0-1.783,0.408-2.702,1.307c0,0-1.972,1.988-1.918,4.656l3.647,0.054c0,0,0.162-1.742,0.567-2.205
			c0,0,0.973-1.144,2.134-1.035c0,0,1.567,0.218,1.729,1.171c0,0,0.621,1.77-0.54,2.858c0,0-1.972,1.552-2.593,2.56
			c0,0-0.729,1.171-0.594,3.294H13.631z"/>
		<ellipse display="inline" fill="#E4E4E4" cx="11.794" cy="19.209" rx="1.783" ry="1.797"/>
	</g>
</g>
<g id="Gender_1_" display="none">
	<g id="Gender" display="inline">
		<circle fill="none" stroke="#FFFFFF" stroke-miterlimit="10" cx="9.052" cy="11.838" r="4.382"/>
		<circle fill="none" stroke="#FFFFFF" stroke-miterlimit="10" cx="14.947" cy="12.058" r="4.382"/>
		<rect x="8.455" y="16.178" fill="#FFFFFF" width="1.079" height="4.446"/>
		<rect x="14.408" y="16.178" fill="#FFFFFF" width="1.079" height="5.213"/>
		<rect x="13.447" y="19.514" fill="#FFFFFF" width="3.001" height="1.079"/>
		<polygon fill="#FFFFFF" points="7.653,20.593 8.994,22.468 10.335,20.593 		"/>
	</g>
</g>
<g id="Bump" display="none">
	
		<ellipse transform="matrix(0.8745 0.4851 -0.4851 0.8745 7.794 -1.6673)" display="inline" fill="#FFFFFF" cx="7.118" cy="14.226" rx="0.763" ry="3.548"/>
	
		<ellipse transform="matrix(-0.8745 0.4851 -0.4851 -0.8745 26.3971 21.6202)" display="inline" fill="#FFFFFF" cx="10.401" cy="14.226" rx="0.763" ry="3.548"/>
	<polygon display="inline" fill="#56A550" points="36.832,13.319 38.822,17.352 34.842,17.352 	"/>
	<path display="inline" fill="#FFFFFF" d="M6.832,11.27l-0.666,0.876c0,0,0.916-3.354,0.333-4.021c0,0,0.876,0.438,0.813,0.979
		c0,0,1.368-2.625,1.423-3.438v3.24"/>
	<path display="inline" fill="#FFFFFF" d="M10.64,11.27l0.665,0.876c0,0-0.915-3.354-0.333-4.021c0,0-0.876,0.438-0.813,0.979
		c0,0-1.368-2.625-1.423-3.438v3.24"/>
</g>
</svg>
