<?xml version="1.0" encoding="utf-8"?>
<!-- Generator: Adobe Illustrator 18.0.0, SVG Export Plug-In . SVG Version: 6.00 Build 0)  -->
<!DOCTYPE svg PUBLIC "-//W3C//DTD SVG 1.1//EN" "http://www.w3.org/Graphics/SVG/1.1/DTD/svg11.dtd">
<svg version="1.1" id="Layer_1" xmlns="http://www.w3.org/2000/svg" xmlns:xlink="http://www.w3.org/1999/xlink" x="0px" y="0px"
	 viewBox="0 0 399 401" enable-background="new 0 0 399 401" xml:space="preserve">
<g id="Avi_3_">
	<rect x="19.8" y="15.2" fill="#6CBAC7" width="359.7" height="364.9"/>
	<g id="Flame_6_" display="none">
		<path display="inline" fill="#FFFFFF" d="M163.2,163c0,0-18.8-79.9,57.6-110c0,0,12.9-8.6,0,17.2c0,0-10.8,34.4,0,47.3
			c0,0,46.2,29,38.2,56.4"/>
		<polygon display="inline" fill="#FFFFFF" points="162.6,159.8 258.9,173.9 251.9,214.3 179.8,231.5 		"/>
		<path display="inline" fill="#FFFFFF" d="M189.5,188.5c-18.3-41.9-74.2-28-74.2-28c-29,10.8,0,17.2,0,17.2s30.1,12.9,20.4,33.3
			l-14,36.6c0,0-10.1,19.4,15.9,45.2l36.8,40.9c0,0,23.7,17.2,41.9,0c0,0,53.8-147.3,75.3-171c0,0,20.4-16.1,0-11.8
			c0,0-23.7,9.5-32.8,23.1c-0.1,0.1-1.8,4-3.6,8.8c-2.7,7.1-5.7,16.2-4.4,18.6"/>
		<ellipse display="inline" fill="#6CBAC7" cx="178.7" cy="254.6" rx="11.9" ry="27.4"/>
		<ellipse display="inline" fill="#6CBAC7" cx="226.6" cy="254.6" rx="11.9" ry="27.4"/>
		<path display="inline" fill="none" stroke="#000000" stroke-miterlimit="10" d="M139,158.3"/>
		<path fill="#FFFFFF" d="M250,82c0,0,9,12.6,2.3,19c0,0-16,14.5-2.3,27.9l5.6,5.5c0,0,5.2,3,12.5-3c0,0,10-6.4,7.5-17.3
			c0,0-2.1-5.1-1.7-8.3c0,0-1.3-8.1-3.8-11.3c0,0,1.5,12.6-0.2,14.9C269.9,109.5,268.8,88.6,250,82z"/>
		<path display="inline" fill="#FFFFFF" d="M273.6,272.8c0,0-35.3,51.6-58.8,62.3l11.9-50.2c0,0,39.5-40.9,46.9-15.1"/>
		<path display="inline" fill="#FFFFFF" d="M272.6,179.6c0,0-16.4,11.1-7.2,29.1l10.9,28.6c0,0,15.5,20.2-15.4,51.4
			c-30.9,31.2-22.2-6.8-22.2-6.8l8.5-55.9C247.3,226,249.1,181,272.6,179.6z"/>
		<path display="inline" fill="#FFFFFF" d="M273.1,229.1c0,0-9.3-21.6,0-37c9.3-15.5-26.5,23.3-26.5,23.3L273.1,229.1z"/>
	</g>
	<g id="Picture_Icon_With_Flash_1_">
		<g display="none">
			<path display="inline" fill="#D97777" d="M358.9,389c0,1.1-0.9,2-2,2H38.1c-1.1,0-2-0.9-2-2V70.2c0-1.1,0.9-2,2-2h318.8
				c1.1,0,2,0.9,2,2V389z"/>
		</g>
		<g id="Camera_2_">
			<g id="CameBody_1_">
				<path fill="#C12126" d="M281.6,293.3c0,1.1-0.9,2-2,2H116.3c-1.1,0-2-0.9-2-2V169.9c0-1.1,0.9-2,2-2h163.3c1.1,0,2,0.9,2,2
					V293.3z"/>
			</g>
			<path id="CamCenterLens_2_" fill="#892727" d="M245.6,233.7c0,24.9-20.2,45.1-45.1,45.1l0,0c-24.9,0-45.1-20.2-45.1-45.1l0,0
				c0-24.9,20.2-45.1,45.1-45.1l0,0C225.4,188.6,245.6,208.8,245.6,233.7L245.6,233.7z"/>
			<path id="Dot_2_" fill="#892727" d="M155.1,191.4c0,6.1-4.9,11.1-11.1,11.1l0,0c-6.1,0-11.1-4.9-11.1-11.1l0,0
				c0-6.1,5-11.1,11.1-11.1l0,0C150.2,180.4,155.1,185.3,155.1,191.4L155.1,191.4z"/>
			<path id="Lens_2_" fill="#E6A5A5" d="M239.5,233.7c0,21.6-17.5,39.1-39.1,39.1l0,0c-21.6,0-39.1-17.5-39.1-39.1l0,0
				c0-21.6,17.5-39.1,39.1-39.1l0,0C222,194.6,239.5,212.1,239.5,233.7L239.5,233.7z"/>
			<rect id="Button_2_" x="125.3" y="157.3" fill="#892727" width="30.1" height="10.7"/>
			<path fill="#892727" d="M195,208.1c0,0,26.1-2.2,26.6,25.6C221.6,233.7,210,215.7,195,208.1z"/>
		</g>
		<rect x="245.6" y="160.4" fill="#892727" width="18.8" height="7.5"/>
		<g id="Flash_1_">
			<path fill="#C12126" d="M280.2,160.6c0,1.1-0.9,2-2,2h-46.4c-1.1,0-2-0.9-2-2v-34.4c0-1.1,0.9-2,2-2h46.4c1.1,0,2,0.9,2,2V160.6z
				"/>
		</g>
		<polyline fill="#D8D9D8" points="265.1,93.2 273.2,59.1 281.2,93.2 308.8,76.1 294.7,104.7 324.6,114.1 294.9,122.7 310.1,152 
			281.9,134.6 272.9,167.7 265.1,132.4 236.6,151.3 249.4,121.4 219.8,113.4 252.6,102.8 237.8,79.3 		"/>
		<g id="Add">
			<path fill="#6CBAC7" d="M278.6,129.9c0,1.6-1.3,2.9-2.9,2.9h-4.3c-1.6,0-2.9-1.3-2.9-2.9V96.9c0-1.6,1.3-2.9,2.9-2.9h4.3
				c1.6,0,2.9,1.3,2.9,2.9V129.9z"/>
			<path fill="#6CBAC7" d="M290.1,108.4c1.6,0,2.9,1.3,2.9,2.9v4.3c0,1.6-1.3,2.9-2.9,2.9h-32.9c-1.6,0-2.9-1.3-2.9-2.9v-4.3
				c0-1.6,1.3-2.9,2.9-2.9H290.1z"/>
		</g>
	</g>
	<path fill="#FFFFFF" d="M201.8,12.3C99.5,12.3,16.6,95.2,16.6,197.5s82.9,185.3,185.3,185.3c102.3,0,185.3-82.9,185.3-185.3
		S304.2,12.3,201.8,12.3z M202.5,363.4c-91.6,0-165.9-74.3-165.9-165.9c0-91.6,74.3-165.9,165.9-165.9
		c91.6,0,165.9,74.3,165.9,165.9C368.4,289.2,294.1,363.4,202.5,363.4z"/>
	<path display="none" fill="#232426" d="M0,0v401h399V0H0z M199.7,380c-99.3,0-179.9-81-179.9-181c0-100,80.5-181,179.9-181
		s179.9,81,179.9,181C379.5,299,299,380,199.7,380z"/>
	<path fill="#232426" d="M0,0v401h399V0H0z M199.7,380c-99.3,0-179.9-81-179.9-181c0-100,80.5-181,179.9-181s179.9,81,179.9,181
		C379.5,299,299,380,199.7,380z"/>
</g>
</svg>
