<?xml version="1.0" encoding="utf-8"?>
<!-- Generator: Adobe Illustrator 18.0.0, SVG Export Plug-In . SVG Version: 6.00 Build 0)  -->
<!DOCTYPE svg PUBLIC "-//W3C//DTD SVG 1.1//EN" "http://www.w3.org/Graphics/SVG/1.1/DTD/svg11.dtd">
<svg version="1.1" id="Layer_1" xmlns="http://www.w3.org/2000/svg" xmlns:xlink="http://www.w3.org/1999/xlink" x="0px" y="0px"
	 viewBox="0 0 370.5 370.5" enable-background="new 0 0 370.5 370.5" xml:space="preserve">
<g>
	<g>
		<defs>
			<circle id="SVGID_1_" cx="185.1" cy="185.3" r="175.8"/>
		</defs>
		<clipPath id="SVGID_2_">
			<use xlink:href="#SVGID_1_"  overflow="visible"/>
		</clipPath>
		<rect x="-3.1" y="-5.6" clip-path="url(#SVGID_2_)" fill="#6DB9C6" width="376.3" height="381.7"/>
	</g>
	<g id="Picture_Icon_With_Flash_1_">
		<g display="none">
			<path display="inline" fill="#D77676" d="M344.3,376.7c0,1.1-0.9,2-2,2H23.5c-1.1,0-2-0.9-2-2V57.9c0-1.1,0.9-2,2-2h318.8
				c1.1,0,2,0.9,2,2V376.7z"/>
		</g>
		<g id="Camera_2_">
			<g id="CameBody_1_">
				<path fill="#C02126" d="M267,281c0,1.1-0.9,2-2,2H101.7c-1.1,0-2-0.9-2-2V157.7c0-1.1,0.9-2,2-2H265c1.1,0,2,0.9,2,2V281z"/>
			</g>
			<path id="CamCenterLens_2_" fill="#882827" d="M231,221.4c0,24.9-20.2,45.1-45.1,45.1l0,0c-24.9,0-45.1-20.2-45.1-45.1l0,0
				c0-24.9,20.2-45.1,45.1-45.1l0,0C210.8,176.3,231,196.5,231,221.4L231,221.4z"/>
			<path id="Dot_2_" fill="#882827" d="M140.5,179.1c0,6.1-4.9,11.1-11.1,11.1l0,0c-6.1,0-11.1-4.9-11.1-11.1l0,0
				c0-6.1,5-11.1,11.1-11.1l0,0C135.6,168.1,140.5,173,140.5,179.1L140.5,179.1z"/>
			<path id="Lens_2_" fill="#E6A5A5" d="M225,221.4c0,21.6-17.5,39.1-39.1,39.1l0,0c-21.6,0-39.1-17.5-39.1-39.1l0,0
				c0-21.6,17.5-39.1,39.1-39.1l0,0C207.5,182.3,225,199.8,225,221.4L225,221.4z"/>
			<rect id="Button_2_" x="110.7" y="145" fill="#882827" width="30.1" height="10.7"/>
			<path fill="#882827" d="M180.4,195.8c0,0,26.1-2.2,26.6,25.6C207.1,221.4,195.5,203.4,180.4,195.8z"/>
		</g>
		<rect x="231" y="148.1" fill="#882827" width="18.8" height="7.5"/>
		<g id="Flash_1_">
			<path fill="#C02126" d="M265.6,148.3c0,1.1-0.9,2-2,2h-46.4c-1.1,0-2-0.9-2-2V114c0-1.1,0.9-2,2-2h46.4c1.1,0,2,0.9,2,2V148.3z"
				/>
		</g>
		<polyline fill="#D7D7D7" points="250.6,80.9 258.6,46.8 266.6,80.9 294.3,63.9 280.1,92.5 310,101.8 280.3,110.4 295.6,139.7 
			267.3,122.3 258.3,155.4 250.6,120.1 222,139 234.8,109.2 205.3,101.1 238,90.5 223.3,67.1 		"/>
		<g id="Add">
			<path fill="#6DB9C6" d="M264.1,117.6c0,1.6-1.3,2.9-2.9,2.9h-4.3c-1.6,0-2.9-1.3-2.9-2.9V84.7c0-1.6,1.3-2.9,2.9-2.9h4.3
				c1.6,0,2.9,1.3,2.9,2.9V117.6z"/>
			<path fill="#6DB9C6" d="M275.5,96.1c1.6,0,2.9,1.3,2.9,2.9v4.3c0,1.6-1.3,2.9-2.9,2.9h-32.9c-1.6,0-2.9-1.3-2.9-2.9V99
				c0-1.6,1.3-2.9,2.9-2.9H275.5z"/>
		</g>
	</g>
	<path fill="#FFFFFF" d="M185.3,0C82.9,0,0,82.9,0,185.3s82.9,185.3,185.3,185.3c102.3,0,185.3-82.9,185.3-185.3S287.6,0,185.3,0z
		 M186,351.1c-91.6,0-165.9-74.3-165.9-165.9C20.1,93.7,94.4,19.4,186,19.4c91.6,0,165.9,74.3,165.9,165.9
		C351.8,276.9,277.6,351.1,186,351.1z"/>
</g>
</svg>
