<?xml version="1.0" encoding="utf-8"?>
<!-- Generator: Adobe Illustrator 18.0.0, SVG Export Plug-In . SVG Version: 6.00 Build 0)  -->
<!DOCTYPE svg PUBLIC "-//W3C//DTD SVG 1.1//EN" "http://www.w3.org/Graphics/SVG/1.1/DTD/svg11.dtd">
<svg version="1.1" id="Layer_1" xmlns="http://www.w3.org/2000/svg" xmlns:xlink="http://www.w3.org/1999/xlink" x="0px" y="0px"
	 viewBox="0 0 184.6 180.3" enable-background="new 0 0 184.6 180.3" xml:space="preserve">
<g>
	<rect x="-3.6" y="-3.5" fill="#3B5991" width="188.2" height="183.8"/>
	<path id="White_5_" fill="#FFFFFF" d="M134.5,37.9H47.3c-3,0-5.4,2.4-5.4,5.4v87.3c0,3,2.4,5.4,5.4,5.4h47V98H81.5V83.2h12.8V72.3
		c0-12.7,7.7-19.6,19-19.6c5.4,0,10.1,0.4,11.4,0.6v13.2l-7.8,0c-6.1,0-7.3,2.9-7.3,7.2v9.5h14.7L122.3,98h-12.8v38h25
		c3,0,5.4-2.4,5.4-5.4V43.3C139.9,40.3,137.5,37.9,134.5,37.9z"/>
</g>
</svg>
