<?xml version="1.0" encoding="utf-8"?>
<!-- Generator: Adobe Illustrator 18.1.0, SVG Export Plug-In . SVG Version: 6.00 Build 0)  -->
<svg version="1.1" id="Layer_1" xmlns="http://www.w3.org/2000/svg" xmlns:xlink="http://www.w3.org/1999/xlink" x="0px" y="0px"
	 viewBox="0 0 91.886 90.145" enable-background="new 0 0 91.886 90.145" xml:space="preserve">
<g>
	<rect x="290.395" y="94.159" fill="none" width="24.127" height="18.059"/>
	<text transform="matrix(1 0 0 1 290.3952 110.1194)" display="none" fill="#DEE8E2" font-family="'OpenSans'" font-size="21">80</text>
</g>
<g id="Starburst_6_">
	
		<rect x="55.103" y="58.335" transform="matrix(-0.7032 -0.711 0.711 -0.7032 61.0206 144.9744)" fill="#AFB2B5" width="11.332" height="2.833"/>
	<circle display="none" fill="#AFB2B5" cx="46.077" cy="44.818" r="12.192"/>
	<polygon fill="#AFB2B5" points="46.092,36.431 48.787,41.967 54.876,42.886 50.443,47.16 51.452,53.235 46.017,50.34 
		40.552,53.176 41.625,47.113 37.239,42.79 43.337,41.938 	"/>
	
		<rect x="40.517" y="23.812" transform="matrix(-0.0054 1 -1 -0.0054 71.6617 -20.8163)" fill="#AFB2B5" width="11.332" height="2.833"/>
	
		<rect x="40.273" y="63.5" transform="matrix(-0.0054 1 -1 -0.0054 111.1032 19.3307)" fill="#AFB2B5" width="11.331" height="2.833"/>
	
		<rect x="20.55" y="43.295" transform="matrix(-1 -0.0054 0.0054 -1 52.1897 89.5641)" fill="#AFB2B5" width="11.332" height="2.833"/>
	
		<rect x="60.299" y="43.509" transform="matrix(-1 -0.0053 0.0053 -1 131.6886 90.2032)" fill="#AFB2B5" width="11.332" height="2.833"/>
	
		<rect x="54.941" y="29.138" transform="matrix(-0.7109 0.7033 -0.7033 -0.7109 125.1812 9.6507)" fill="#AFB2B5" width="11.332" height="2.833"/>
	
		<rect x="26.038" y="29.016" transform="matrix(-0.7033 -0.7109 0.7109 -0.7033 32.3665 74.3737)" fill="#AFB2B5" width="11.332" height="2.833"/>
	
		<rect x="25.335" y="58.786" transform="matrix(-0.7109 0.7033 -0.7033 -0.7109 95.3788 81.1958)" fill="#AFB2B5" width="11.332" height="2.833"/>
</g>
<polygon fill="none" stroke="#8E9397" stroke-width="3.4455" stroke-miterlimit="10" points="2.46,45.073 45.943,2.413 
	89.426,45.073 45.943,87.732 "/>
</svg>
