<?xml version="1.0" encoding="utf-8"?>
<!-- Generator: Adobe Illustrator 18.1.0, SVG Export Plug-In . SVG Version: 6.00 Build 0)  -->
<svg version="1.1" id="Layer_1" xmlns="http://www.w3.org/2000/svg" xmlns:xlink="http://www.w3.org/1999/xlink" x="0px" y="0px"
	 viewBox="0 0 406.921 136.32" enable-background="new 0 0 406.921 136.32" xml:space="preserve">
<g id="Starburst_7_">
	
		<rect x="247.84" y="103.585" transform="matrix(-0.7033 -0.7109 0.7109 -0.7033 371.5837 369.8325)" fill="#DB728B" width="30.268" height="7.568"/>
	<circle display="none" fill="#DB728B" cx="223.733" cy="67.481" r="32.566"/>
	<polygon fill="#DB728B" points="223.772,45.078 230.973,59.866 247.234,62.319 235.397,73.736 238.087,89.961 223.572,82.229 
		208.973,89.805 211.84,73.609 200.123,62.064 216.412,59.788 	"/>
	
		<rect x="208.879" y="11.373" transform="matrix(-0.0055 1 -1 -0.0055 240.3973 -208.7719)" fill="#DB728B" width="30.269" height="7.565"/>
	
		<rect x="208.228" y="117.381" transform="matrix(-0.0054 1 -1 -0.0054 345.7233 -101.5447)" fill="#DB728B" width="30.269" height="7.57"/>
	<polygon fill="#DB728B" points="0.041,63.329 185.838,63.492 185.797,71.059 0,70.895 	"/>
	<polygon fill="#DB728B" points="261.742,63.902 406.921,64.065 406.88,71.632 261.701,71.469 	"/>
	
		<rect x="247.411" y="25.598" transform="matrix(-0.7109 0.7033 -0.7033 -0.7109 469.8526 -134.3763)" fill="#DB728B" width="30.268" height="7.567"/>
	
		<rect x="170.209" y="25.272" transform="matrix(-0.7033 -0.7109 0.7109 -0.7033 295.0298 181.2541)" fill="#DB728B" width="30.266" height="7.567"/>
	
		<rect x="168.327" y="104.789" transform="matrix(-0.7109 0.7032 -0.7032 -0.7109 390.2447 56.7424)" fill="#DB728B" width="30.268" height="7.567"/>
</g>
</svg>
