<?xml version="1.0" encoding="utf-8"?>
<!-- Generator: Adobe Illustrator 18.0.0, SVG Export Plug-In . SVG Version: 6.00 Build 0)  -->
<!DOCTYPE svg PUBLIC "-//W3C//DTD SVG 1.1//EN" "http://www.w3.org/Graphics/SVG/1.1/DTD/svg11.dtd">
<svg version="1.1" id="Layer_1" xmlns="http://www.w3.org/2000/svg" xmlns:xlink="http://www.w3.org/1999/xlink" x="0px" y="0px"
	 viewBox="0 0 90.3 39.5" enable-background="new 0 0 90.3 39.5" xml:space="preserve">
<g id="Fait7_7_">
	
		<rect id="Outline_x2C__Fait_7_" x="-4.8" y="-15.2" display="none" fill="none" stroke="#FFFFFF" stroke-width="3.6364" stroke-miterlimit="10" width="97.2" height="69.8"/>
	<g id="F_7_">
		
			<rect id="F_x2C__steam_7_" x="0.1" y="0" transform="matrix(-1 5.869983e-03 -5.869983e-03 -1 3.4211 39.4763)" fill="#FFFFFF" width="3.1" height="39.4"/>
		
			<rect id="F_x2C__bottom_7_" x="8.7" y="8.3" transform="matrix(-6.227616e-03 -1 1 -6.227616e-03 -7.3345 28.0261)" fill="#FFFFFF" width="3.1" height="18.7"/>
		
			<rect id="F_x2C__top_7_" x="8.7" y="-7.8" transform="matrix(-6.195073e-03 -1 1 -6.195073e-03 8.7265 11.8914)" fill="#FFFFFF" width="3.1" height="18.8"/>
	</g>
	
		<rect id="I_7_" x="57.2" y="0" transform="matrix(1 -6.227667e-03 6.227667e-03 1 -0.1215 0.366)" fill="#FFFFFF" width="3.1" height="39.3"/>
	<g id="T_7_">
		
			<rect id="T_x2C__bottom_7_" x="75.8" y="-11.3" transform="matrix(6.064692e-03 1 -1 6.064692e-03 78.5191 -75.773)" fill="#FFFFFF" width="3.1" height="25.9"/>
		
			<rect id="T_x2C__Top_7_" x="75.8" y="0.7" transform="matrix(1 -6.227661e-03 6.227661e-03 1 -0.1231 0.4823)" fill="#FFFFFF" width="3.1" height="38.7"/>
	</g>
	<polygon id="Triangle_7_" display="none" fill="#FFFFFF" points="27.7,113.7 33.5,127.5 39.8,113.7 	"/>
	<polygon id="A_7_" fill="#6DB9C6" points="36.4,2.2 35.4,0 32,0 31.1,2.2 14.8,39.4 18.8,39.4 22.9,29.2 33.7,2.5 44.5,29.2 
		48.7,39.4 52.7,39.4 	"/>
	<polygon id="MiddleDiamond_7_" display="none" fill="#FFFFFF" points="33.5,61.7 27.5,75.5 33.5,89.3 40,75.5 	"/>
	<polygon id="TopDiamond_7_" display="none" fill="#FFFFFF" points="35.8,21.5 31.7,21.5 27.7,25.5 33.5,39.4 39.8,25.5 	"/>
</g>
</svg>
