<?xml version="1.0" encoding="utf-8"?>
<!-- Generator: Adobe Illustrator 18.1.0, SVG Export Plug-In . SVG Version: 6.00 Build 0)  -->
<svg version="1.1" id="Layer_1" xmlns="http://www.w3.org/2000/svg" xmlns:xlink="http://www.w3.org/1999/xlink" x="0px" y="0px"
	 viewBox="0 0 64.828 64.829" enable-background="new 0 0 64.828 64.829" xml:space="preserve">
<g>
	<path d="M54.132,64.829H10.696C4.789,64.829,0,60.04,0,54.132V10.696C0,4.789,4.789,0,10.696,0h43.436
		c5.907,0,10.696,4.789,10.696,10.696v43.436C64.828,60.04,60.039,64.829,54.132,64.829z"/>
	<g id="Follow_7_">
		<path display="none" fill="#FFFFFF" d="M32.131,24.672c-11.07,0-20.045,8.974-20.045,20.045c0,11.07,8.975,20.044,20.045,20.044
			c11.07,0,20.045-8.974,20.045-20.044C52.176,33.646,43.201,24.672,32.131,24.672z M32.329,62.092
			c-9.485,0-17.177-7.69-17.177-17.177c0-9.486,7.691-17.176,17.177-17.176c9.486,0,17.176,7.689,17.176,17.176
			C49.505,54.402,41.815,62.092,32.329,62.092z"/>
		<path fill="#FFFFFF" d="M42.256,41.899h-6.911v-6.911c0-0.952-0.771-1.724-1.724-1.724h-2.585c-0.951,0-1.724,0.771-1.724,1.724
			v6.911h-6.91c-0.952,0-1.724,0.771-1.724,1.724v2.584c0,0.952,0.772,1.724,1.724,1.724h6.91v6.911
			c0,0.953,0.772,1.724,1.724,1.724h2.585c0.952,0,1.724-0.771,1.724-1.724v-6.911h6.911c0.952,0,1.724-0.771,1.724-1.724v-2.584
			C43.979,42.671,43.208,41.899,42.256,41.899z"/>
	</g>
	<rect x="6.889" y="14.959" fill="none" width="54.438" height="21.426"/>
	<text transform="matrix(1 0 0 1 6.8887 27.8794)" fill="#FFFFFF" font-family="'OpenSans-Semibold'" font-size="17">Follow</text>
</g>
</svg>
