<?xml version="1.0" encoding="utf-8"?>
<!-- Generator: Adobe Illustrator 18.1.0, SVG Export Plug-In . SVG Version: 6.00 Build 0)  -->
<svg version="1.1" id="Layer_1" xmlns="http://www.w3.org/2000/svg" xmlns:xlink="http://www.w3.org/1999/xlink" x="0px" y="0px"
	 viewBox="0 0 49.665 48.248" enable-background="new 0 0 49.665 48.248" xml:space="preserve">
<g id="Follow_12_">
	<path fill="#DEE8E2" d="M25.637,0.908c-12.885,0-23.33,10.445-23.33,23.331S12.752,47.57,25.637,47.57
		c12.885,0,23.331-10.446,23.331-23.331S38.522,0.908,25.637,0.908z M25.868,44.462c-11.041,0-19.992-8.951-19.992-19.992
		c0-11.041,8.951-19.992,19.992-19.992c11.042,0,19.993,8.951,19.993,19.992C45.86,35.512,36.91,44.462,25.868,44.462z"/>
	<circle fill="#6BB9C6" cx="25.663" cy="24.239" r="23.305"/>
	<path display="none" fill="none" stroke="#DEE8E2" stroke-width="2" stroke-miterlimit="10" d="M37.422,20.96h-8.045v-8.044
		c0-1.108-0.898-2.006-2.006-2.006h-3.009c-1.108,0-2.006,0.898-2.006,2.006v8.044h-8.045c-1.108,0-2.006,0.898-2.006,2.006v3.008
		c0,1.108,0.898,2.006,2.006,2.006h8.045v8.044c0,1.108,0.898,2.006,2.006,2.006h3.009c1.108,0,2.006-0.898,2.006-2.006V27.98h8.045
		c1.107,0,2.006-0.898,2.006-2.006v-3.008C39.428,21.858,38.529,20.96,37.422,20.96z"/>
	<g id="Follow_11_">
		<path display="none" fill="#DEE8E2" d="M24.028,0.678c-12.885,0-23.331,10.445-23.331,23.331s10.445,23.331,23.331,23.331
			S47.36,36.894,47.36,24.008S36.914,0.678,24.028,0.678z M24.26,44.232c-11.042,0-19.992-8.951-19.992-19.992
			c0-11.041,8.95-19.992,19.992-19.992c11.04,0,19.992,8.951,19.992,19.992C44.251,35.281,35.3,44.232,24.26,44.232z"/>
		<path fill="#DEE8E2" d="M37.217,20.729h-8.045v-8.044c0-1.108-0.898-2.006-2.005-2.006h-3.009c-1.108,0-2.006,0.898-2.006,2.006
			v8.044h-8.045c-1.108,0-2.005,0.898-2.005,2.006v3.008c0,1.108,0.898,2.006,2.005,2.006h8.045v8.044
			c0,1.108,0.898,2.006,2.006,2.006h3.009c1.108,0,2.005-0.898,2.005-2.006v-8.044h8.045c1.108,0,2.006-0.898,2.006-2.006v-3.008
			C39.223,21.627,38.325,20.729,37.217,20.729z"/>
	</g>
</g>
<g id="Follow_6_" display="none">
	<path display="inline" fill="#DEE8E2" d="M25.687,0.678C12.737,0.678,2.24,11.174,2.24,24.123
		c0,12.949,10.497,23.446,23.446,23.446c12.949,0,23.446-10.497,23.446-23.446C49.133,11.174,38.635,0.678,25.687,0.678z
		 M25.919,44.447c-11.096,0-20.091-8.995-20.091-20.091c0-11.096,8.995-20.091,20.091-20.091s20.091,8.995,20.091,20.091
		C46.009,35.452,37.015,44.447,25.919,44.447z"/>
	<path fill="none" stroke="#DEE8E2" stroke-width="2" stroke-miterlimit="10" d="M37.53,20.828h-8.084v-8.084
		c0-1.114-0.902-2.016-2.016-2.016h-3.024c-1.113,0-2.015,0.902-2.015,2.016v8.084h-8.085c-1.114,0-2.016,0.902-2.016,2.016v3.023
		c0,1.114,0.902,2.016,2.016,2.016h8.085v8.084c0,1.113,0.902,2.016,2.015,2.016h3.024c1.114,0,2.016-0.903,2.016-2.016v-8.084
		h8.084c1.113,0,2.016-0.902,2.016-2.016v-3.023C39.546,21.73,38.643,20.828,37.53,20.828z"/>
</g>
<path display="none" fill="none" stroke="#DFE9E3" stroke-width="2" stroke-miterlimit="10" d="M37.417,21.591
	c1.113,0,2.016,0.902,2.016,2.016v3.023c0,1.114-0.903,2.016-2.016,2.016H14.194c-1.114,0-2.016-0.902-2.016-2.016v-3.023
	c0-1.114,0.902-2.016,2.016-2.016H37.417z"/>
</svg>
