<?xml version="1.0" encoding="utf-8"?>
<!-- Generator: Adobe Illustrator 18.1.0, SVG Export Plug-In . SVG Version: 6.00 Build 0)  -->
<svg version="1.1" id="Layer_1" xmlns="http://www.w3.org/2000/svg" xmlns:xlink="http://www.w3.org/1999/xlink" x="0px" y="0px"
	 viewBox="0 0 326.364 201.818" enable-background="new 0 0 326.364 201.818" xml:space="preserve">
<rect x="0" y="0" display="none" width="326.364" height="201.818"/>
<g id="Iphone">
	<g id="Front">
		<path fill="#FFFFFF" d="M194.683,139.187l0.185,2.11c-11.789-1.316-18.972-5.064-18.972-7.812c0-2.875,7.804-6.852,20.563-7.987
			h-11.297v-2.211c-8.736,2.331-13.24,6.279-13.24,10.198c0,5.221,7.956,10.494,23.307,11.923l0.18,2.268l2.84-2.038
			c0.006,0-0.086,0.001-0.086,0.001v-0.013l0.678-0.406l3.586-2.455l-3.87-1.789L194.683,139.187z"/>
		<path fill="#FFFFFF" d="M223.161,123.513v1.984h-12.196c12.753,1.135,20.539,5.113,20.539,7.987c0,2.771-7.343,6.568-19.343,7.854
			v4.06c15-1.442,23.343-6.703,23.343-11.914C235.504,129.691,231.326,125.868,223.161,123.513z"/>
		<path fill="#FFFFFF" d="M212.964,48.065h-17.231c-6.6,0-12,5.4-12,12V123.8c0,6.6,5.4,12,12,12h17.231c6.6,0,12-5.4,12-12V60.065
			C224.964,53.465,219.564,48.065,212.964,48.065z M204.599,51.14c0.555,0,1.004,0.45,1.004,1.004c0,0.554-0.449,1.004-1.004,1.004
			c-0.555,0-1.004-0.45-1.004-1.004C203.595,51.59,204.045,51.14,204.599,51.14z M201.336,54.655h6.527
			c0.397,0,0.722,0.325,0.722,0.722c0,0.397-0.325,0.722-0.722,0.722h-6.527c-0.397,0-0.722-0.325-0.722-0.722
			C200.614,54.979,200.939,54.655,201.336,54.655z M204.631,133.164c-2.01,0-3.64-1.63-3.64-3.64c0-2.01,1.63-3.64,3.64-3.64
			c2.01,0,3.64,1.63,3.64,3.64C208.27,131.534,206.641,133.164,204.631,133.164z M222.108,123.185h-35.395V60.491h35.395V123.185z"
			/>
	</g>
	<g id="Brack" display="none">
		<path display="inline" fill="#FFFFFF" d="M235.607,133.485c0-6.113-10.938-12.303-31.843-12.303s-31.843,6.189-31.843,12.303
			c0,5.21,7.951,10.472,23.24,11.914v-4.06c-11.965-1.286-19.24-5.083-19.24-7.854c0-3.386,10.846-8.303,27.843-8.303
			s27.843,4.917,27.843,8.303c0,2.748-7.171,6.496-18.96,7.812l0.191-2.11l-3.868,1.789l-3.868,1.789l3.483,2.455l0.576,0.406v0.013
			c0.006,0,0.011-0.001,0.017-0.001l2.891,2.038l0.206-2.268C227.625,143.979,235.607,138.706,235.607,133.485z"/>
		<path display="inline" fill="#FFFFFF" d="M211.161,48.498h-18c-6.627,0-12,5.373-12,12v65c0,6.627,5.373,12,12,12h18
			c6.627,0,12-5.373,12-12v-65C223.161,53.87,217.788,48.498,211.161,48.498z M190.373,63.788c-2.776,0-5.027-2.251-5.027-5.027
			c0-2.776,2.251-5.027,5.027-5.027c2.776,0,5.027,2.251,5.027,5.027C195.4,61.538,193.149,63.788,190.373,63.788z"/>
	</g>
</g>
<path d="M186.713,123.185"/>
</svg>
