<?xml version="1.0" encoding="utf-8"?>
<!-- Generator: Adobe Illustrator 18.0.0, SVG Export Plug-In . SVG Version: 6.00 Build 0)  -->
<!DOCTYPE svg PUBLIC "-//W3C//DTD SVG 1.1//EN" "http://www.w3.org/Graphics/SVG/1.1/DTD/svg11.dtd">
<svg version="1.1" id="Layer_1" xmlns="http://www.w3.org/2000/svg" xmlns:xlink="http://www.w3.org/1999/xlink" x="0px" y="0px"
	 viewBox="0 0 43 53.2" enable-background="new 0 0 43 53.2" xml:space="preserve">
<g id="Lock_6_">
	<g id="Lock_7_">
		<circle id="Outside_Gray_Circle_3_" fill="#D7D7D7" cx="22.1" cy="15.8" r="15.8"/>
		<circle id="InsideWhite_Cirlce_3_" fill="#232426" cx="21.9" cy="15.8" r="13.8"/>
		<rect id="Square_3_" y="11.2" fill="#D7D7D7" width="43" height="42"/>
		<g id="QuestionMark_3_">
			<path fill="#232426" d="M23,28"/>
			<path id="Curve_2_" fill="#232426" d="M23.4,36.9v-1c0,0,0.4-1.2,0.7-1.5l1.8-1.4c0,0,1.5-1.1,1.8-2.5c0,0,0.5-1.6,0.1-2.7
				c0,0-0.5-2-1.8-2.7c0,0-1.3-0.9-2.7-1.1c0,0-2.4-0.2-3.2,0c0,0-1.8,0.4-2.8,1.3c0,0-2,2-2,4.8l3.7,0.1c0,0,0.2-1.8,0.6-2.3
				c0,0,1-1.2,2.2-1.1c0,0,1.6,0.2,1.8,1.2c0,0,0.6,1.8-0.6,2.9c0,0-2,1.6-2.7,2.6c0,0-0.7,1.2-0.6,3.4H23.4z"/>
			<ellipse id="Circle_2_" fill="#232426" cx="21.5" cy="40.4" rx="1.8" ry="1.8"/>
		</g>
	</g>
</g>
</svg>
