<?xml version="1.0" encoding="utf-8"?>
<!-- Generator: Adobe Illustrator 18.1.0, SVG Export Plug-In . SVG Version: 6.00 Build 0)  -->
<svg version="1.1" id="Layer_1" xmlns="http://www.w3.org/2000/svg" xmlns:xlink="http://www.w3.org/1999/xlink" x="0px" y="0px"
	 viewBox="0 0 245.645 245.645" enable-background="new 0 0 245.645 245.645" xml:space="preserve">
<g id="Play_2_">
	<path fill="#DEE8E2" d="M122.822,0C54.989,0,0,54.989,0,122.822c0,67.833,54.989,122.822,122.822,122.822
		s122.822-54.989,122.822-122.822C245.645,54.989,190.655,0,122.822,0z M122.822,231.061c-59.778,0-108.239-48.46-108.239-108.239
		c0-59.778,48.461-108.239,108.239-108.239c59.779,0,108.239,48.461,108.239,108.239
		C231.062,182.602,182.602,231.061,122.822,231.061z"/>
	<circle fill="#DEE8E2" cx="123.323" cy="125.828" r="57.043"/>
	<polygon fill="#222326" points="164.038,128.703 96.917,95.731 97.039,161.926 	"/>
</g>
</svg>
