<?xml version="1.0" encoding="utf-8"?>
<!-- Generator: Adobe Illustrator 18.0.0, SVG Export Plug-In . SVG Version: 6.00 Build 0)  -->
<!DOCTYPE svg PUBLIC "-//W3C//DTD SVG 1.1//EN" "http://www.w3.org/Graphics/SVG/1.1/DTD/svg11.dtd">
<svg version="1.1" id="Layer_1" xmlns="http://www.w3.org/2000/svg" xmlns:xlink="http://www.w3.org/1999/xlink" x="0px" y="0px"
	 viewBox="0 0 91.9 90.1" enable-background="new 0 0 91.9 90.1" xml:space="preserve">
<g>
	<g id="Picture_3_">
		<g>
			<g>
				<path fill="#D77676" d="M45.3,41c3.1,1.5,5.5,5.2,5.5,5.2C50.7,40.5,45.3,41,45.3,41z"/>
			</g>
			<g>
				<g>
					<path fill="#D77676" d="M30.4,32.8c-0.9,0-1.7,0.8-1.7,1.7v22.3c0,0.9,0.8,1.7,1.7,1.7h31.1c0.9,0,1.7-0.8,1.7-1.7V34.5
						c0-0.9-0.8-1.7-1.7-1.7H30.4z M34.8,39.8c-1.3,0-2.3-1-2.3-2.2c0-1.2,1-2.2,2.3-2.2s2.3,1,2.3,2.2
						C37.1,38.8,36.1,39.8,34.8,39.8z M46.5,54c-4.4,0-8.1-3.5-8.1-7.9c0-4.4,3.6-7.9,8.1-7.9s8.1,3.5,8.1,7.9
						C54.5,50.5,50.9,54,46.5,54z"/>
				</g>
			</g>
			<rect id="Button_1_" x="31" y="31.5" fill="#D77676" width="6.2" height="2.2"/>
		</g>
	</g>
	<polygon fill="none" stroke="#D77676" stroke-width="3.4455" stroke-miterlimit="10" points="2.5,45.1 45.9,2.4 89.4,45.1 
		45.9,87.7 	"/>
</g>
</svg>
