<?xml version="1.0" encoding="utf-8"?>
<!-- Generator: Adobe Illustrator 18.0.0, SVG Export Plug-In . SVG Version: 6.00 Build 0)  -->
<!DOCTYPE svg PUBLIC "-//W3C//DTD SVG 1.1//EN" "http://www.w3.org/Graphics/SVG/1.1/DTD/svg11.dtd">
<svg version="1.1" id="Layer_1" xmlns="http://www.w3.org/2000/svg" xmlns:xlink="http://www.w3.org/1999/xlink" x="0px" y="0px"
	 viewBox="0 0 30.1 28.7" enable-background="new 0 0 30.1 28.7" xml:space="preserve">
<g id="Search_Highlight_Frame_10_">
	<path fill="#ADB0B0" d="M10.6,0C4.8,0,0,4.8,0,10.6c0,5.9,4.8,10.6,10.6,10.6c5.9,0,10.6-4.8,10.6-10.6C21.2,4.8,16.5,0,10.6,0z
		 M10.6,19c-4.7,0-8.4-3.8-8.4-8.4c0-4.7,3.8-8.4,8.4-8.4c4.7,0,8.4,3.8,8.4,8.4C19,15.3,15.3,19,10.6,19z"/>
	<path fill="#ADB0B0" d="M7.1,5.1c0,0,5.9-3.2,8.9,3.3C15.9,8.5,11.4,5.4,7.1,5.1z"/>
	
		<ellipse transform="matrix(0.7653 0.6436 -0.6436 0.7653 20.6752 -10.0089)" fill="#ADB0B0" cx="24.1" cy="23.3" rx="7.5" ry="2.9"/>
</g>
</svg>
