<?xml version="1.0" encoding="utf-8"?>
<!-- Generator: Adobe Illustrator 18.1.0, SVG Export Plug-In . SVG Version: 6.00 Build 0)  -->
<svg version="1.1" id="Layer_1" xmlns="http://www.w3.org/2000/svg" xmlns:xlink="http://www.w3.org/1999/xlink" x="0px" y="0px"
	 viewBox="0 0 40.897 32.088" enable-background="new 0 0 40.897 32.088" xml:space="preserve">
<g id="Picture_7_">
	<g>
		<g>
			<path fill="#D77676" d="M19.732,11.166c3.677,1.835,6.513,6.146,6.513,6.146C26.108,10.636,19.732,11.166,19.732,11.166z"/>
		</g>
		<g>
			<g>
				<path fill="#D77676" d="M2.023,1.543C0.911,1.543,0,2.454,0,3.567v26.497c0,1.113,0.91,2.023,2.023,2.023h36.85
					c1.113,0,2.023-0.91,2.023-2.023V3.567c0-1.113-0.91-2.023-2.023-2.023H2.023z M7.275,9.826c-1.493,0-2.703-1.187-2.703-2.652
					c0-1.465,1.21-2.652,2.703-2.652S9.978,5.71,9.978,7.174C9.978,8.639,8.768,9.826,7.275,9.826z M21.065,26.686
					c-5.275,0-9.554-4.196-9.554-9.374c0-5.175,4.279-9.371,9.554-9.371c5.276,0,9.554,4.196,9.554,9.371
					C30.619,22.489,26.341,26.686,21.065,26.686z"/>
			</g>
		</g>
		<rect id="Button_12_" x="2.679" y="0" fill="#D77676" width="7.353" height="2.554"/>
	</g>
</g>
</svg>
