<?xml version="1.0" encoding="utf-8"?>
<!-- Generator: Adobe Illustrator 18.1.0, SVG Export Plug-In . SVG Version: 6.00 Build 0)  -->
<svg version="1.1" id="Layer_1" xmlns="http://www.w3.org/2000/svg" xmlns:xlink="http://www.w3.org/1999/xlink" x="0px" y="0px"
	 viewBox="0 0 91.886 90.145" enable-background="new 0 0 91.886 90.145" xml:space="preserve">
<g>
	<g id="Video_5_">
		<g id="CameBody_10_">
			<path fill="#DEE8E2" d="M56.598,60.265c0,0.947-0.775,1.723-1.723,1.723H29.642c-0.947,0-1.723-0.775-1.723-1.723V42.292
				c0-0.948,0.775-1.723,1.723-1.723h25.233c0.947,0,1.723,0.775,1.723,1.723V60.265z"/>
		</g>
		<g id="CamLens_8_">
			<path fill="#DEE8E2" d="M63.966,41.075c0-0.947-0.554-1.18-1.229-0.516l-5.614,5.507c-0.676,0.664-1.229,1.982-1.229,2.93
				l-0.001,4.591c0,0.947,0.555,2.265,1.231,2.927l5.61,5.487c0.678,0.663,1.231,0.43,1.231-0.518L63.966,41.075z"/>
		</g>
		<g id="Film_4_">
			<path id="Left_4_" fill="#DEE8E2" d="M41.657,33.181c0,3.447-2.849,6.242-6.363,6.242l0,0c-3.514,0-6.362-2.795-6.362-6.242l0,0
				c0-3.447,2.849-6.242,6.362-6.242l0,0C38.809,26.939,41.657,29.734,41.657,33.181L41.657,33.181z"/>
			<path id="Right_4_" fill="#DEE8E2" d="M54.383,33.181c0,3.447-2.849,6.242-6.363,6.242l0,0c-3.514,0-6.362-2.795-6.362-6.242l0,0
				c0-3.447,2.849-6.242,6.362-6.242l0,0C51.534,26.939,54.383,29.734,54.383,33.181L54.383,33.181z"/>
			<path id="Bottom_4_" fill="#DEE8E2" d="M28.896,32.97c0,0-0.39,6.048,6.398,6.382h13.683c0,0,5.386-0.796,5.406-6.382H28.896z"/>
		</g>
	</g>
	<polygon fill="none" stroke="#DEE8E2" stroke-width="3.4455" stroke-miterlimit="10" points="2.46,45.072 45.942,2.413 
		89.426,45.072 45.942,87.731 	"/>
</g>
</svg>
