<?xml version="1.0" encoding="utf-8"?>
<!-- Generator: Adobe Illustrator 18.1.0, SVG Export Plug-In . SVG Version: 6.00 Build 0)  -->
<svg version="1.1" id="Layer_1" xmlns="http://www.w3.org/2000/svg" xmlns:xlink="http://www.w3.org/1999/xlink" x="0px" y="0px"
	 viewBox="0 0 91.885 90.145" enable-background="new 0 0 91.885 90.145" xml:space="preserve">
<g>
	<g id="Picture_1_">
		<g>
			<g>
				<path fill="#D77676" d="M45.339,40.958c3.1,1.548,5.492,5.183,5.492,5.183C50.716,40.512,45.339,40.958,45.339,40.958z"/>
			</g>
			<g>
				<g>
					<path fill="#D77676" d="M30.403,32.843c-0.939,0-1.706,0.768-1.706,1.706v22.347c0,0.939,0.768,1.706,1.706,1.706h31.079
						c0.939,0,1.706-0.768,1.706-1.706V34.549c0-0.939-0.768-1.706-1.706-1.706H30.403z M34.833,39.828
						c-1.259,0-2.28-1.001-2.28-2.236c0-1.235,1.021-2.236,2.28-2.236c1.258,0,2.279,1.001,2.279,2.236
						C37.112,38.827,36.091,39.828,34.833,39.828z M46.463,54.047c-4.45,0-8.058-3.539-8.058-7.905c0-4.364,3.608-7.903,8.058-7.903
						c4.449,0,8.058,3.539,8.058,7.903C54.521,50.508,50.912,54.047,46.463,54.047z"/>
				</g>
			</g>
			<rect id="Button_4_" x="30.956" y="31.541" fill="#D77676" width="6.202" height="2.155"/>
		</g>
	</g>
	<polygon fill="none" stroke="#D77676" stroke-width="3.4455" stroke-miterlimit="10" points="2.46,45.072 45.943,2.413 
		89.425,45.072 45.943,87.731 	"/>
</g>
</svg>
