<?xml version="1.0" encoding="utf-8"?>
<!-- Generator: Adobe Illustrator 18.0.0, SVG Export Plug-In . SVG Version: 6.00 Build 0)  -->
<!DOCTYPE svg PUBLIC "-//W3C//DTD SVG 1.1//EN" "http://www.w3.org/Graphics/SVG/1.1/DTD/svg11.dtd">
<svg version="1.1" id="Layer_1" xmlns="http://www.w3.org/2000/svg" xmlns:xlink="http://www.w3.org/1999/xlink" x="0px" y="0px"
	 viewBox="0 0 180 111.9" enable-background="new 0 0 180 111.9" xml:space="preserve">
<g>
	<rect x="94.8" y="58.3" fill="#D7D7D7" width="85.2" height="37.6"/>
	<rect x="99.6" y="60.7" fill="#6BB9C6" width="4.7" height="4.7"/>
	<rect x="111.2" y="60.7" fill="#6BB9C6" width="4.7" height="4.7"/>
	<rect x="122.9" y="60.7" fill="#6BB9C6" width="4.7" height="4.7"/>
	<rect x="134.6" y="60.7" fill="#6BB9C6" width="4.7" height="4.7"/>
	<rect x="146.2" y="60.7" fill="#6BB9C6" width="4.7" height="4.7"/>
	<rect x="157.9" y="60.7" fill="#6BB9C6" width="4.7" height="4.7"/>
	<rect x="169.6" y="60.7" fill="#6BB9C6" width="4.7" height="4.7"/>
	<rect x="169.6" y="88.6" fill="#6BB9C6" width="4.7" height="4.7"/>
	<rect x="157.9" y="88.6" fill="#6BB9C6" width="4.7" height="4.7"/>
	<rect x="146.2" y="88.6" fill="#6BB9C6" width="4.7" height="4.7"/>
	<rect x="134.6" y="88.6" fill="#6BB9C6" width="4.7" height="4.7"/>
	<rect x="122.9" y="88.6" fill="#6BB9C6" width="4.7" height="4.7"/>
	<rect x="111.2" y="88.6" fill="#6BB9C6" width="4.7" height="4.7"/>
	<rect x="99.6" y="88.6" fill="#6BB9C6" width="4.7" height="4.7"/>
</g>
<g id="Video_3_">
	<g id="CameBody_13_">
		<path fill="#1B7FBC" d="M90.6,105.2c0,3-2.4,5.4-5.4,5.4H5.4c-3,0-5.4-2.4-5.4-5.4V48.5c0-3,2.4-5.4,5.4-5.4h79.7
			c3,0,5.4,2.4,5.4,5.4V105.2z"/>
	</g>
	<g id="CamLens_3_">
		<path fill="#1B7FBC" d="M113.8,44.6c0-3-1.7-3.7-3.9-1.6L92.2,60.4c-2.1,2.1-3.9,6.3-3.9,9.2l0,14.5c0,3,1.7,7.2,3.9,9.2
			l17.7,17.3c2.1,2.1,3.9,1.4,3.9-1.6L113.8,44.6z"/>
	</g>
	<g id="Film_3_">
		<path id="Left_3_" fill="#1B7FBC" d="M43.4,19.7c0,10.9-9,19.7-20.1,19.7l0,0c-11.1,0-20.1-8.8-20.1-19.7l0,0
			C3.2,8.8,12.2,0,23.3,0l0,0C34.4,0,43.4,8.8,43.4,19.7L43.4,19.7z"/>
		<path id="Right_3_" fill="#1B7FBC" d="M83.6,19.7c0,10.9-9,19.7-20.1,19.7l0,0c-11.1,0-20.1-8.8-20.1-19.7l0,0
			C43.4,8.8,52.4,0,63.5,0l0,0C74.6,0,83.6,8.8,83.6,19.7L83.6,19.7z"/>
		<path id="Bottom_3_" fill="#1B7FBC" d="M3.1,19c0,0-1.2,19.1,20.2,20.2h43.2c0,0,17-2.5,17.1-20.2H3.1z"/>
	</g>
	<path fill="#6BB9C6" d="M23.3,30.9L23.3,30.9c-6.1,0-11.2-5-11.2-11.2l0,0c0-6.1,5-11.2,11.2-11.2l0,0c6.1,0,11.2,5,11.2,11.2l0,0
		C34.5,25.9,29.4,30.9,23.3,30.9z"/>
	<path fill="#6BB9C6" d="M63.5,30.9L63.5,30.9c-6.1,0-11.2-5-11.2-11.2l0,0c0-6.1,5-11.2,11.2-11.2l0,0c6.1,0,11.2,5,11.2,11.2l0,0
		C74.6,25.9,69.6,30.9,63.5,30.9z"/>
</g>
<g id="Add_3_">
	<path fill="#6BB9C6" d="M165.4,84.6c0,0.7-0.6,1.3-1.3,1.3h-1.9c-0.7,0-1.3-0.6-1.3-1.3v-15c0-0.7,0.6-1.3,1.3-1.3h1.9
		c0.7,0,1.3,0.6,1.3,1.3V84.6z"/>
	<path fill="#6BB9C6" d="M170.6,74.8c0.7,0,1.3,0.6,1.3,1.3v1.9c0,0.7-0.6,1.3-1.3,1.3h-15c-0.7,0-1.3-0.6-1.3-1.3v-1.9
		c0-0.7,0.6-1.3,1.3-1.3H170.6z"/>
</g>
</svg>
