<?xml version="1.0" encoding="utf-8"?>
<!-- Generator: Adobe Illustrator 18.0.0, SVG Export Plug-In . SVG Version: 6.00 Build 0)  -->
<!DOCTYPE svg PUBLIC "-//W3C//DTD SVG 1.1//EN" "http://www.w3.org/Graphics/SVG/1.1/DTD/svg11.dtd">
<svg version="1.1" id="Layer_1" xmlns="http://www.w3.org/2000/svg" xmlns:xlink="http://www.w3.org/1999/xlink" x="0px" y="0px"
	 viewBox="0 0 137.2 154.1" enable-background="new 0 0 137.2 154.1" xml:space="preserve">
<g id="Picture_Icon_With_Flash_2_">
	<g display="none">
		<path display="inline" fill="#D77676" d="M159.6,215.2c0,0.7-0.6,1.3-1.3,1.3h-208c-0.7,0-1.3-0.6-1.3-1.3V7.2
			c0-0.7,0.6-1.3,1.3-1.3h208c0.7,0,1.3,0.6,1.3,1.3V215.2z"/>
	</g>
	<g id="Camera_1_">
		<g id="CameBody_3_">
			<path fill="#C01719" d="M109.1,152.8c0,0.7-0.6,1.3-1.3,1.3H1.3c-0.7,0-1.3-0.6-1.3-1.3V72.3C0,71.6,0.6,71,1.3,71h106.5
				c0.7,0,1.3,0.6,1.3,1.3V152.8z"/>
		</g>
		<path id="CamCenterLens_1_" fill="#872626" d="M85.7,113.9c0,16.3-13.2,29.4-29.4,29.4l0,0c-16.3,0-29.4-13.2-29.4-29.4l0,0
			c0-16.3,13.2-29.4,29.4-29.4l0,0C72.5,84.5,85.7,97.6,85.7,113.9L85.7,113.9z"/>
		<path id="Dot_1_" fill="#872626" d="M26.6,86.3c0,4-3.2,7.2-7.2,7.2l0,0c-4,0-7.2-3.2-7.2-7.2l0,0c0-4,3.2-7.2,7.2-7.2l0,0
			C23.4,79.1,26.6,82.3,26.6,86.3L26.6,86.3z"/>
		<path id="Lens_1_" fill="#E5A4A4" d="M81.7,113.9c0,14.1-11.4,25.5-25.5,25.5l0,0c-14.1,0-25.5-11.4-25.5-25.5l0,0
			c0-14.1,11.4-25.5,25.5-25.5l0,0C70.3,88.4,81.7,99.8,81.7,113.9L81.7,113.9z"/>
		<rect id="Button_3_" x="7.1" y="64.1" fill="#872626" width="19.6" height="7"/>
		<path fill="#872626" d="M52.7,97.2c0,0,17-1.4,17.4,16.7C70,113.9,62.5,102.2,52.7,97.2z"/>
	</g>
	<rect x="85.7" y="66.1" fill="#872626" width="12.2" height="4.9"/>
	<g id="Flash_2_">
		<path fill="#C01719" d="M108.2,66.2c0,0.7-0.6,1.3-1.3,1.3H76.6c-0.7,0-1.3-0.6-1.3-1.3V43.8c0-0.7,0.6-1.3,1.3-1.3h30.3
			c0.7,0,1.3,0.6,1.3,1.3V66.2z"/>
	</g>
	<polyline fill="#D7D7D7" points="98.4,22.2 103.7,0 108.9,22.2 126.9,11.1 117.7,29.8 137.2,35.8 117.8,41.5 127.8,60.6 
		109.3,49.3 103.5,70.9 98.4,47.8 79.8,60.2 88.2,40.7 68.9,35.4 90.2,28.5 80.6,13.2 	"/>
	<g id="Add_1_">
		<path fill="#D77676" d="M107.2,46.2c0,1-0.8,1.9-1.9,1.9h-2.8c-1,0-1.9-0.8-1.9-1.9V24.7c0-1,0.8-1.9,1.9-1.9h2.8
			c1,0,1.9,0.8,1.9,1.9V46.2z"/>
		<path fill="#D77676" d="M114.7,32.2c1,0,1.9,0.8,1.9,1.9v2.8c0,1-0.8,1.9-1.9,1.9H93.2c-1,0-1.9-0.8-1.9-1.9V34
			c0-1,0.8-1.9,1.9-1.9H114.7z"/>
	</g>
</g>
</svg>
