<?xml version="1.0" encoding="utf-8"?>
<!-- Generator: Adobe Illustrator 18.1.0, SVG Export Plug-In . SVG Version: 6.00 Build 0)  -->
<svg version="1.1" id="Layer_1" xmlns="http://www.w3.org/2000/svg" xmlns:xlink="http://www.w3.org/1999/xlink" x="0px" y="0px"
	 viewBox="0 0 39.274 50.194" enable-background="new 0 0 39.274 50.194" xml:space="preserve">
<g id="Award_5_">
	<path fill="#EFDF7D" d="M19.8,16.86c-9.205,0-16.667,7.463-16.667,16.668c0,9.205,7.462,16.666,16.667,16.666
		c9.205,0,16.667-7.461,16.667-16.666C36.467,24.323,29.005,16.86,19.8,16.86z M19.8,46.247c-7.056,0-12.776-5.719-12.776-12.775
		S12.744,20.696,19.8,20.696c7.056,0,12.776,5.719,12.776,12.775S26.855,46.247,19.8,46.247z"/>
	<polygon fill="#EFDF7D" points="19.789,26.586 21.998,31.123 26.988,31.876 23.355,35.379 24.182,40.357 19.727,37.985 
		15.248,40.31 16.128,35.34 12.533,31.798 17.531,31.099 	"/>
	<polygon fill="#EFDF7D" points="0,0 13.65,0 18.506,8.421 14.628,15.733 10.433,17.547 	"/>
	<path fill="#EFDF7D" d="M25.761,0.112h13.514L29.096,17.547c0,0-4.091-2.631-11.882-2.165L25.761,0.112z"/>
</g>
</svg>
