<?xml version="1.0" encoding="utf-8"?>
<!-- Generator: Adobe Illustrator 18.1.0, SVG Export Plug-In . SVG Version: 6.00 Build 0)  -->
<svg version="1.1" id="Layer_1" xmlns="http://www.w3.org/2000/svg" xmlns:xlink="http://www.w3.org/1999/xlink" x="0px" y="0px"
	 viewBox="0 0 88 88" enable-background="new 0 0 88 88" xml:space="preserve">
<g>
	<rect x="278.704" y="81.901" fill="none" width="24.127" height="18.059"/>
	<text transform="matrix(1 0 0 1 278.7047 97.8613)" display="none" fill="#DEE8E2" font-family="'OpenSans'" font-size="21">80</text>
</g>
<g id="StandardFB_3_">
	<circle fill="none" stroke="#6BB9C6" stroke-width="3" stroke-miterlimit="10" cx="44" cy="44" r="42.5"/>
	<g>
		<g>
			<path fill="#FFFFFF" d="M26.585,53.65c-1.224,1.984-3.221,2.791-3.859,2.084c-0.651-0.707-0.042-2.364,0.9-3.915
				c2.961-4.774,2.961-10.863,0-15.638c-0.943-1.551-1.552-3.207-0.9-3.914c0.639-0.707,2.635,0.098,3.859,2.083
				C30.239,40.243,30.239,47.758,26.585,53.65z"/>
		</g>
		<g>
			<path fill="#FFFFFF" d="M39.35,65.123c-1.321,1.662-3.147,2.344-3.806,1.652c-0.664-0.692-0.077-2.353,1.082-3.817
				c8.816-11.066,8.816-26.849,0-37.915c-1.16-1.465-1.747-3.126-1.082-3.818c0.659-0.691,2.485-0.011,3.806,1.653
				C49.173,35.209,49.173,52.792,39.35,65.123z"/>
		</g>
		<g>
			<path fill="#FFFFFF" d="M55.483,73.004c-1.338,1.584-3.123,2.233-3.786,1.547c-0.668-0.688-0.086-2.352,1.128-3.792
				c13.049-15.413,13.049-38.104,0-53.518c-1.214-1.441-1.795-3.103-1.128-3.792c0.664-0.686,2.448-0.037,3.786,1.547
				C69.627,31.702,69.627,56.298,55.483,73.004z"/>
		</g>
	</g>
</g>
</svg>
