<?xml version="1.0" encoding="utf-8"?>
<!-- Generator: Adobe Illustrator 16.0.4, SVG Export Plug-In . SVG Version: 6.00 Build 0)  -->
<!DOCTYPE svg PUBLIC "-//W3C//DTD SVG 1.1//EN" "http://www.w3.org/Graphics/SVG/1.1/DTD/svg11.dtd">
<svg version="1.1" id="Layer_1" xmlns="http://www.w3.org/2000/svg" xmlns:xlink="http://www.w3.org/1999/xlink" x="0px" y="0px"
	 width="189px" height="189px" viewBox="0 0 189 189" enable-background="new 0 0 189 189" xml:space="preserve">
<rect width="189" height="189"/>
<g display="none">
	
		<rect x="92.333" y="86.364" transform="matrix(-0.7071 0.7071 -0.7071 -0.7071 234.7864 88.8037)" display="inline" fill="#FFFFFF" width="13.335" height="13.335"/>
	<circle display="inline" fill="none" stroke="#6BB9C6" stroke-width="3" stroke-miterlimit="10" cx="99" cy="93.031" r="22"/>
</g>
<rect x="-261.001" y="-52.782" transform="matrix(-0.6935 -0.7205 0.7205 -0.6935 -369.9174 -192.9424)" display="none" fill="none" stroke="#FFFFFF" stroke-width="3" stroke-miterlimit="10" width="70" height="70"/>
<rect x="-324" y="-53.217" transform="matrix(-0.6935 -0.7205 0.7205 -0.6935 -476.2908 -239.068)" display="none" fill="none" stroke="#FFFFFF" stroke-width="3" stroke-miterlimit="10" width="70" height="70"/>
<g>
	
		<rect x="79.762" y="74.762" transform="matrix(-0.7071 0.7071 -0.7071 -0.7071 234.2645 89.9645)" fill="none" stroke="#6BB9C6" stroke-width="3" stroke-miterlimit="10" width="37.477" height="37.477"/>
	<polyline fill="none" stroke="#FFFFFF" stroke-width="3" stroke-miterlimit="10" points="90.746,118.506 66.055,142.271 
		17.512,91.838 67.945,43.294 90.746,66.983 	"/>
	<polyline fill="none" stroke="#FFFFFF" stroke-width="3" stroke-miterlimit="10" points="105.672,118.268 129.555,142.846 
		179.758,94.062 130.975,43.86 107.395,66.773 	"/>
</g>
</svg>
