<?xml version="1.0" encoding="utf-8"?>
<!-- Generator: Adobe Illustrator 18.1.0, SVG Export Plug-In . SVG Version: 6.00 Build 0)  -->
<svg version="1.1" id="Layer_1" xmlns="http://www.w3.org/2000/svg" xmlns:xlink="http://www.w3.org/1999/xlink" x="0px" y="0px"
	 viewBox="0 0 49.665 48.248" enable-background="new 0 0 49.665 48.248" xml:space="preserve">
<g id="Follow_12_" display="none">
	<path display="inline" fill="#DEE8E2" d="M25.66,0.237c-13.258,0-24.005,10.747-24.005,24.005S12.402,48.248,25.66,48.248
		c13.258,0,24.005-10.748,24.005-24.005S38.918,0.237,25.66,0.237z M25.897,45.05c-11.36,0-20.57-9.209-20.57-20.57
		c0-11.36,9.21-20.57,20.57-20.57c11.361,0,20.57,9.209,20.57,20.57C46.468,35.841,37.259,45.05,25.897,45.05z"/>
	<circle display="inline" fill="#6BB9C6" cx="25.687" cy="24.242" r="23.979"/>
	<path fill="none" stroke="#DEE8E2" stroke-width="2" stroke-miterlimit="10" d="M37.786,20.868h-8.277v-8.277
		c0-1.14-0.924-2.064-2.064-2.064H24.35c-1.14,0-2.063,0.924-2.063,2.064v8.277h-8.277c-1.14,0-2.063,0.924-2.063,2.064v3.095
		c0,1.14,0.924,2.064,2.063,2.064h8.277v8.277c0,1.14,0.924,2.064,2.063,2.064h3.096c1.14,0,2.064-0.924,2.064-2.064v-8.277h8.277
		c1.139,0,2.064-0.924,2.064-2.064v-3.095C39.85,21.792,38.925,20.868,37.786,20.868z"/>
	<g id="Follow_11_" display="inline">
		<path display="none" fill="#DEE8E2" d="M24.005,0C10.747,0,0,10.747,0,24.005S10.747,48.01,24.005,48.01
			s24.006-10.748,24.006-24.005S37.263,0,24.005,0z M24.243,44.813c-11.361,0-20.57-9.209-20.57-20.57
			c0-11.36,9.209-20.57,20.57-20.57c11.359,0,20.569,9.21,20.569,20.57C44.813,35.604,35.603,44.813,24.243,44.813z"/>
		<path fill="#DEE8E2" d="M37.575,20.631h-8.277v-8.277c0-1.14-0.924-2.064-2.063-2.064h-3.096c-1.14,0-2.064,0.924-2.064,2.064
			v8.277h-8.277c-1.14,0-2.063,0.924-2.063,2.064v3.095c0,1.14,0.924,2.064,2.063,2.064h8.277v8.277c0,1.14,0.924,2.064,2.064,2.064
			h3.096c1.14,0,2.063-0.924,2.063-2.064v-8.277h8.277c1.14,0,2.063-0.924,2.063-2.064v-3.095
			C39.639,21.555,38.715,20.631,37.575,20.631z"/>
	</g>
</g>
<g id="Follow_6_">
	<path fill="#DEE8E2" d="M25.687,0.678C12.737,0.678,2.24,11.174,2.24,24.123c0,12.949,10.497,23.446,23.446,23.446
		c12.949,0,23.446-10.497,23.446-23.446C49.133,11.174,38.635,0.678,25.687,0.678z M25.919,44.447
		c-11.096,0-20.091-8.995-20.091-20.091c0-11.096,8.995-20.091,20.091-20.091s20.091,8.995,20.091,20.091
		C46.009,35.452,37.015,44.447,25.919,44.447z"/>
	<path display="none" fill="none" stroke="#DEE8E2" stroke-width="2" stroke-miterlimit="10" d="M37.53,20.828h-8.084v-8.084
		c0-1.114-0.902-2.016-2.016-2.016h-3.024c-1.113,0-2.015,0.902-2.015,2.016v8.084h-8.085c-1.114,0-2.016,0.902-2.016,2.016v3.023
		c0,1.114,0.902,2.016,2.016,2.016h8.085v8.084c0,1.113,0.902,2.016,2.015,2.016h3.024c1.114,0,2.016-0.903,2.016-2.016v-8.084
		h8.084c1.113,0,2.016-0.902,2.016-2.016v-3.023C39.546,21.73,38.643,20.828,37.53,20.828z"/>
</g>
<path fill="none" stroke="#DFE9E3" stroke-width="2" stroke-miterlimit="10" d="M37.417,21.591c1.113,0,2.016,0.902,2.016,2.016
	v3.023c0,1.114-0.903,2.016-2.016,2.016H14.194c-1.114,0-2.016-0.902-2.016-2.016v-3.023c0-1.114,0.902-2.016,2.016-2.016H37.417z"
	/>
</svg>
