<?xml version="1.0" encoding="utf-8"?>
<!-- Generator: Adobe Illustrator 18.1.0, SVG Export Plug-In . SVG Version: 6.00 Build 0)  -->
<svg version="1.1" id="Layer_1" xmlns="http://www.w3.org/2000/svg" xmlns:xlink="http://www.w3.org/1999/xlink" x="0px" y="0px"
	 viewBox="0 0 66.486 66.487" enable-background="new 0 0 66.486 66.487" xml:space="preserve">
<g>
	<path fill="#1B7FBC" d="M33.243,0C14.883,0,0,14.883,0,33.244c0,18.359,14.883,33.243,33.243,33.243
		c18.359,0,33.243-14.884,33.243-33.243C66.486,14.883,51.602,0,33.243,0z M33.572,62.058c-15.732,0-28.486-12.754-28.486-28.486
		c0-15.732,12.754-28.486,28.486-28.486c15.732,0,28.485,12.754,28.485,28.486C62.058,49.305,49.305,62.058,33.572,62.058z"/>
	<rect x="21.18" y="26.993" fill="none" width="24.127" height="18.059"/>
	<text transform="matrix(1 0 0 1 21.1802 42.9526)" display="none" fill="#DEE8E2" font-family="'OpenSans'" font-size="21">80</text>
</g>
</svg>
