<?xml version="1.0" encoding="utf-8"?>
<!-- Generator: Adobe Illustrator 18.1.0, SVG Export Plug-In . SVG Version: 6.00 Build 0)  -->
<svg version="1.1" id="Layer_1" xmlns="http://www.w3.org/2000/svg" xmlns:xlink="http://www.w3.org/1999/xlink" x="0px" y="0px"
	 viewBox="0 0 35 34.41" enable-background="new 0 0 35 34.41" xml:space="preserve">
<g>
	<g id="Video_14_">
		<g id="CameBody_32_">
			<path fill="#6BB9C6" d="M27.845,32.358c0,0.92-0.753,1.673-1.673,1.673H1.673C0.753,34.031,0,33.278,0,32.358V14.907
				c0-0.92,0.753-1.673,1.673-1.673h24.499c0.92,0,1.673,0.753,1.673,1.673V32.358z"/>
		</g>
		<g id="CamLens_22_">
			<path fill="#6BB9C6" d="M35,13.725c0-0.92-0.537-1.146-1.194-0.501l-5.451,5.347c-0.657,0.644-1.194,1.924-1.194,2.844
				l-0.001,4.458c0,0.92,0.538,2.199,1.196,2.843l5.447,5.328c0.658,0.643,1.196,0.417,1.196-0.503L35,13.725z"/>
		</g>
		<g id="Film_12_">
			<path id="Left_12_" fill="#6BB9C6" d="M13.339,6.061c0,3.347-2.766,6.061-6.178,6.061l0,0c-3.413,0-6.179-2.714-6.179-6.061l0,0
				C0.982,2.714,3.748,0,7.161,0l0,0C10.573,0,13.339,2.714,13.339,6.061L13.339,6.061z"/>
			<path id="Right_12_" fill="#6BB9C6" d="M25.694,6.061c0,3.347-2.765,6.061-6.177,6.061l0,0c-3.413,0-6.178-2.714-6.178-6.061l0,0
				C13.339,2.714,16.104,0,19.517,0l0,0C22.929,0,25.694,2.714,25.694,6.061L25.694,6.061z"/>
			<path id="Bottom_12_" fill="#6BB9C6" d="M0.947,5.855c0,0-0.377,5.873,6.214,6.197h13.284c0,0,5.23-0.774,5.249-6.197H0.947z"/>
		</g>
	</g>
	<polygon display="none" fill="none" stroke="#6BB9C6" stroke-width="3.3454" stroke-miterlimit="10" points="-24.72,17.607 
		17.5,-23.813 59.719,17.607 17.5,59.026 	"/>
</g>
</svg>
